<?xml version="1.0" encoding="UTF-8" standalone="no"?>
<!-- Created with Inkscape (http://www.inkscape.org/) -->

<svg
   xmlns:dc="http://purl.org/dc/elements/1.1/"
   xmlns:cc="http://creativecommons.org/ns#"
   xmlns:rdf="http://www.w3.org/1999/02/22-rdf-syntax-ns#"
   xmlns:svg="http://www.w3.org/2000/svg"
   xmlns="http://www.w3.org/2000/svg"
   xmlns:sodipodi="http://sodipodi.sourceforge.net/DTD/sodipodi-0.dtd"
   xmlns:inkscape="http://www.inkscape.org/namespaces/inkscape"
   width="263mm"
   height="102mm"
   viewBox="0 0 263 102"
   version="1.1"
   id="svg1091"
   inkscape:version="0.92.4 5da689c313, 2019-01-14"
   sodipodi:docname="logo.svg">
  <defs
     id="defs1085" />
  <sodipodi:namedview
     id="base"
     pagecolor="#ffffff"
     bordercolor="#666666"
     borderopacity="1.0"
     inkscape:pageopacity="0.0"
     inkscape:pageshadow="2"
     inkscape:zoom="0.49497475"
     inkscape:cx="521.58875"
     inkscape:cy="98.405047"
     inkscape:document-units="mm"
     inkscape:current-layer="layer1"
     showgrid="false"
     inkscape:window-width="1366"
     inkscape:window-height="713"
     inkscape:window-x="0"
     inkscape:window-y="27"
     inkscape:window-maximized="1"
     showguides="true"
     inkscape:guide-bbox="true" />
  <metadata
     id="metadata1088">
    <rdf:RDF>
      <cc:Work
         rdf:about="">
        <dc:format>image/svg+xml</dc:format>
        <dc:type
           rdf:resource="http://purl.org/dc/dcmitype/StillImage" />
        <dc:title />
      </cc:Work>
    </rdf:RDF>
  </metadata>
  <g
     inkscape:label="Layer 1"
     inkscape:groupmode="layer"
     id="layer1"
     transform="translate(0,-195)">
    <rect
       style="fill:#368354;fill-opacity:1;stroke:none;stroke-width:0.47371164"
       id="rect5592"
       width="263"
       height="102"
       x="-1.687539e-14"
       y="195" />
    <g
       id="g5590"
       transform="translate(-17.865226,190.28194)">
      <g
         id="g5529">
        <path
           style="fill:#ebcb45;fill-opacity:1;stroke:none;stroke-width:0.5"
           d="m 42.61032,24.596949 c -0.08863,0 -0.174347,0.0065 -0.2589,0.01602 -0.06158,0.0051 -0.123238,0.01341 -0.185002,0.02429 -0.84073,0.112932 -1.411425,0.513778 -2.492354,1.590083 -0.01505,0.01491 -0.03111,0.03008 -0.04599,0.04496 -8.4e-5,8.6e-5 -4.31e-4,-8.6e-5 -5.15e-4,0 -0.0958,0.0958 -0.192085,0.195215 -0.287838,0.297656 -0.09577,0.102449 -0.190513,0.207665 -0.283189,0.315743 -1.59e-4,1.86e-4 -3.57e-4,3.31e-4 -5.16e-4,5.17e-4 -0.185174,0.215989 -0.361235,0.442529 -0.515731,0.674894 -0.15457,0.232525 -0.287658,0.471305 -0.387056,0.712101 -0.09944,0.240824 -0.165214,0.483563 -0.185002,0.724504 -0.0094,0.08387 -0.01596,0.168956 -0.01602,0.256831 v 0.001 5.17e-4 33.999474 5.16e-4 c 0,0.103701 0.0053,0.206028 0.0155,0.306959 0,0 0,5.16e-4 0,5.16e-4 0.01019,0.100925 0.02561,0.200514 0.04548,0.298175 0,0 0,5.16e-4 0,5.16e-4 0.01987,0.09765 0.04432,0.193423 0.07338,0.287321 0,0 0,5.16e-4 0,5.16e-4 0.02908,0.09389 0.063,0.185791 0.100769,0.275437 0,0 0,5.16e-4 0,5.16e-4 0.03779,0.08964 0.0801,0.177101 0.12609,0.261998 0,0 0,5.19e-4 0,5.19e-4 0.046,0.08489 0.09615,0.166838 0.149863,0.246496 0,0 0,5.16e-4 0,5.16e-4 0.215206,0.31908 0.490172,0.594048 0.809252,0.809255 0,0 5.16e-4,0 5.16e-4,0 0.07966,0.05373 0.161599,0.103833 0.246496,0.14986 0,0 5.19e-4,0 5.19e-4,0 0.0849,0.04601 0.172352,0.08828 0.261998,0.126089 0,0 5.18e-4,0 5.18e-4,0 0.08965,0.0378 0.181536,0.07166 0.275434,0.10077 0,0 5.16e-4,0 5.16e-4,0 0.0939,0.02909 0.189664,0.05348 0.287322,0.07338 0,0 5.16e-4,0 5.16e-4,0 0.09766,0.01989 0.197252,0.03526 0.298175,0.04547 0,0 5.16e-4,0 5.16e-4,0 0.100928,0.01019 0.20326,0.01549 0.306959,0.0155 h 34.000508 c 0.08863,0 0.174345,-0.0065 0.258897,-0.01602 0.06158,-0.0051 0.123238,-0.01342 0.185002,-0.02429 0.853245,-0.114612 1.425541,-0.521716 2.538347,-1.634524 1.69e-4,-1.7e-4 3.49e-4,-3.5e-4 5.16e-4,-5.19e-4 0.09563,-0.09563 0.192249,-0.194889 0.287837,-0.297138 1.67e-4,-1.77e-4 3.55e-4,-3.41e-4 5.19e-4,-5.18e-4 0.148532,-0.158904 0.292452,-0.326914 0.431498,-0.498676 0.04014,-0.04959 0.08218,-0.09785 0.120923,-0.148312 8.4e-5,-1.12e-4 -8.8e-5,-4.05e-4 0,-5.16e-4 0.08641,-0.112559 0.169277,-0.226989 0.246496,-0.343133 8.2e-5,-1.25e-4 -8.2e-5,-3.92e-4 0,-5.16e-4 0.0772,-0.116139 0.149492,-0.233725 0.214458,-0.352433 7.4e-5,-1.4e-4 -7.7e-5,-3.78e-4 0,-5.16e-4 0.06494,-0.1187 0.122939,-0.238379 0.172598,-0.358635 6.1e-5,-1.51e-4 -6.3e-5,-3.68e-4 0,-5.18e-4 0.0994,-0.240795 0.165214,-0.483563 0.185002,-0.724504 0.0094,-0.08387 0.01596,-0.168955 0.01602,-0.256831 v -10e-4 -5.16e-4 -33.999474 -5.17e-4 c -1.3e-5,-0.103699 -0.0053,-0.20603 -0.0155,-0.306958 0,0 0,-5.17e-4 0,-5.17e-4 -0.01021,-0.100922 -0.02559,-0.20051 -0.04547,-0.298173 0,0 0,-5.17e-4 0,-5.17e-4 -0.0199,-0.09766 -0.04429,-0.193421 -0.07338,-0.287321 0,0 0,-5.17e-4 0,-5.17e-4 -0.0291,-0.0939 -0.06297,-0.185786 -0.100769,-0.275435 0,0 0,-5.17e-4 0,-5.17e-4 -0.03781,-0.08965 -0.08008,-0.177097 -0.12609,-0.261999 0,0 0,-5.17e-4 0,-5.17e-4 -0.04603,-0.0849 -0.09613,-0.166834 -0.149863,-0.246497 0,0 0,-5.16e-4 0,-5.16e-4 -0.0538,-0.07977 -0.111053,-0.156982 -0.172082,-0.230994 -0.06111,-0.07411 -0.125923,-0.144545 -0.193786,-0.21239 -0.135528,-0.135528 -0.283842,-0.258266 -0.443383,-0.365869 0,0 -5.16e-4,0 -5.16e-4,0 -0.07966,-0.05371 -0.161603,-0.103861 -0.246497,-0.149862 0,0 -5.18e-4,0 -5.18e-4,0 -0.0849,-0.04598 -0.172358,-0.0883 -0.261999,-0.12609 0,0 -5.16e-4,0 -5.16e-4,0 -0.08964,-0.03777 -0.181541,-0.07169 -0.275436,-0.10077 0,0 -5.16e-4,0 -5.16e-4,0 -0.0939,-0.02906 -0.189667,-0.0535 -0.287322,-0.07338 0,0 -5.16e-4,0 -5.16e-4,0 -0.09766,-0.01987 -0.197249,-0.03529 -0.298175,-0.04547 0,0 -5.15e-4,0 -5.15e-4,0 -0.100931,-0.01016 -0.203256,-0.0155 -0.306959,-0.0155 h -5.16e-4 z"
           id="rect1638"
           inkscape:connector-curvature="0" />
        <rect
           style="fill:#f4f098;fill-opacity:1;stroke:none;stroke-width:0.5"
           id="rect5345"
           width="40"
           height="40"
           x="37.952206"
           y="26.255905"
           rx="3"
           ry="3" />
        <text
           xml:space="preserve"
           style="font-style:normal;font-weight:normal;font-size:10.58333302px;line-height:1.25;font-family:sans-serif;letter-spacing:0px;word-spacing:0px;fill:#000000;fill-opacity:1;stroke:none;stroke-width:0.26458332"
           x="48.007938"
           y="58.408909"
           id="text5415"><tspan
             sodipodi:role="line"
             id="tspan5413"
             x="48.007938"
             y="58.408909"
             style="font-style:normal;font-variant:normal;font-weight:normal;font-stretch:normal;font-size:40.56944656px;font-family:'Dumbledor 3';-inkscape-font-specification:'Dumbledor 3, ';fill:#368354;fill-opacity:1;stroke-width:0.26458332">S</tspan></text>
        <text
           xml:space="preserve"
           style="font-style:normal;font-weight:normal;font-size:10.58333302px;line-height:1.25;font-family:sans-serif;letter-spacing:0px;word-spacing:0px;fill:#000000;fill-opacity:1;stroke:none;stroke-width:0.26458332"
           x="74.885719"
           y="63.080902"
           id="text5419"><tspan
             sodipodi:role="line"
             id="tspan5417"
             x="74.885719"
             y="63.080902"
             style="font-style:normal;font-variant:normal;font-weight:normal;font-stretch:normal;font-size:6.3499999px;font-family:'Dumbledor 3';-inkscape-font-specification:'Dumbledor 3, ';text-align:end;text-anchor:end;fill:#368354;fill-opacity:1;stroke-width:0.26458332">1</tspan></text>
      </g>
      <g
         transform="translate(45.291811)"
         id="g5441">
        <path
           inkscape:connector-curvature="0"
           id="rect1638-8"
           d="m 42.610319,24.596887 c -0.08863,0 -0.174347,0.0065 -0.2589,0.01602 -0.06158,0.0051 -0.123238,0.01341 -0.185002,0.02429 -0.84073,0.112932 -1.411425,0.513778 -2.492354,1.590082 -0.01505,0.01491 -0.03111,0.03008 -0.04599,0.04496 -8.4e-5,8.6e-5 -4.31e-4,-8.6e-5 -5.16e-4,0 -0.0958,0.0958 -0.192084,0.195215 -0.287837,0.297656 -0.09577,0.102449 -0.190513,0.207665 -0.283189,0.315743 -1.59e-4,1.86e-4 -3.57e-4,3.31e-4 -5.16e-4,5.16e-4 -0.185174,0.21599 -0.361235,0.44253 -0.515731,0.674895 -0.15457,0.232525 -0.287658,0.471305 -0.387056,0.712101 -0.09944,0.240824 -0.165214,0.483563 -0.185002,0.724504 -0.0094,0.08387 -0.01596,0.168956 -0.01602,0.256831 v 0.001 5.29e-4 33.999476 5.3e-4 c 0,0.1037 0.0053,0.206028 0.0155,0.306959 0,0 0,5.29e-4 0,5.29e-4 0.01019,0.100925 0.02561,0.200514 0.04548,0.298175 0,0 0,5.29e-4 0,5.29e-4 0.01987,0.09765 0.04432,0.193423 0.07338,0.287321 0,0 0,5.3e-4 0,5.3e-4 0.02908,0.09389 0.063,0.18579 0.100769,0.275436 0,0 0,5.29e-4 0,5.29e-4 0.03779,0.08964 0.0801,0.177102 0.12609,0.261999 0,0 0,5.29e-4 0,5.29e-4 0.046,0.08489 0.09615,0.166838 0.149863,0.246496 0,0 0,5.29e-4 0,5.29e-4 0.215206,0.31908 0.490172,0.594048 0.809252,0.809255 0,0 5.16e-4,0 5.16e-4,0 0.07966,0.05373 0.161599,0.103833 0.246496,0.14986 0,0 5.19e-4,0 5.19e-4,0 0.0849,0.04601 0.172352,0.08828 0.261998,0.12609 0,0 5.18e-4,0 5.18e-4,0 0.08965,0.0378 0.181536,0.07166 0.275434,0.100769 0,0 5.16e-4,0 5.16e-4,0 0.0939,0.02909 0.189664,0.05348 0.287322,0.07338 0,0 5.16e-4,0 5.16e-4,0 0.09766,0.0199 0.197252,0.03526 0.298175,0.04547 0,0 5.29e-4,0 5.29e-4,0 0.100928,0.01019 0.20326,0.01548 0.306959,0.0155 h 34.000496 c 0.08863,0 0.174344,-0.0065 0.258897,-0.01603 0.06158,-0.0051 0.123238,-0.01341 0.185002,-0.02429 0.853244,-0.114612 1.425541,-0.521716 2.538346,-1.634524 1.7e-4,-1.7e-4 2.65e-4,-2.65e-4 5.3e-4,-5.3e-4 0.09563,-0.09563 0.192249,-0.194889 0.287837,-0.29714 1.67e-4,-1.75e-4 2.65e-4,-2.64e-4 5.29e-4,-5.29e-4 0.148532,-0.158904 0.292452,-0.326914 0.431499,-0.498676 0.04014,-0.04959 0.08218,-0.09785 0.120922,-0.148312 8.5e-5,-1.14e-4 -8.7e-5,-5.29e-4 0,-5.29e-4 0.08641,-0.11256 0.169283,-0.226989 0.246493,-0.343133 9e-5,-1.27e-4 -8e-5,-2.65e-4 0,-5.29e-4 0.0772,-0.116139 0.1495,-0.233725 0.21446,-0.352433 8e-5,-1.41e-4 -8e-5,-2.65e-4 0,-5.3e-4 0.0649,-0.1187 0.12294,-0.238379 0.1726,-0.358634 6e-5,-1.54e-4 -6e-5,-2.65e-4 0,-5.3e-4 0.0994,-0.240794 0.16521,-0.483563 0.185,-0.724505 0.009,-0.08387 0.016,-0.168955 0.016,-0.256829 v -0.0011 -5.29e-4 -33.999437 -5.29e-4 c -10e-6,-0.103699 -0.005,-0.20603 -0.0155,-0.306958 0,0 0,-5.29e-4 0,-5.29e-4 -0.0102,-0.100922 -0.0256,-0.20051 -0.0455,-0.298173 0,0 0,-5.16e-4 0,-5.16e-4 -0.0199,-0.09766 -0.0443,-0.193421 -0.0734,-0.287321 0,0 0,-5.16e-4 0,-5.16e-4 -0.0291,-0.0939 -0.063,-0.185786 -0.10076,-0.275435 0,0 0,-5.16e-4 0,-5.16e-4 -0.0378,-0.08965 -0.0801,-0.177097 -0.1261,-0.261999 0,0 0,-5.16e-4 0,-5.16e-4 -0.046,-0.0849 -0.0961,-0.166834 -0.14986,-0.246497 0,0 0,-5.16e-4 0,-5.16e-4 -0.0538,-0.07977 -0.11105,-0.156982 -0.17208,-0.230994 -0.0611,-0.07411 -0.125923,-0.144545 -0.193786,-0.21239 -0.135528,-0.135528 -0.28384,-0.258266 -0.443381,-0.365869 0,0 -5.29e-4,0 -5.29e-4,0 -0.07966,-0.05371 -0.161605,-0.103861 -0.246499,-0.149862 0,0 -5.3e-4,0 -5.3e-4,0 -0.0849,-0.04598 -0.17236,-0.0883 -0.262001,-0.12609 0,0 -5.29e-4,0 -5.29e-4,0 -0.08964,-0.03777 -0.181541,-0.07169 -0.275434,-0.10077 0,0 -5.29e-4,0 -5.29e-4,0 -0.0939,-0.02906 -0.189669,-0.0535 -0.287324,-0.07338 0,0 -5.29e-4,0 -5.29e-4,0 -0.09766,-0.01987 -0.197247,-0.03529 -0.298175,-0.04547 0,0 -5.29e-4,0 -5.29e-4,0 -0.100857,-0.01009 -0.203184,-0.01543 -0.306885,-0.01543 h -5.29e-4 z"
           style="fill:#ebcb45;fill-opacity:1;stroke:none;stroke-width:0.5" />
        <rect
           ry="3"
           rx="3"
           y="26.255905"
           x="37.952206"
           height="40"
           width="40"
           id="rect5431"
           style="fill:#f4f098;fill-opacity:1;stroke:none;stroke-width:0.5" />
        <text
           id="text5435"
           y="57.735394"
           x="47.690987"
           style="font-style:normal;font-weight:normal;font-size:10.58333302px;line-height:1.25;font-family:sans-serif;letter-spacing:0px;word-spacing:0px;fill:#000000;fill-opacity:1;stroke:none;stroke-width:0.26458332"
           xml:space="preserve"><tspan
             style="font-style:normal;font-variant:normal;font-weight:normal;font-stretch:normal;font-size:40.56944656px;font-family:'Dumbledor 3';-inkscape-font-specification:'Dumbledor 3, ';fill:#368354;fill-opacity:1;stroke-width:0.26458332"
             y="57.735394"
             x="47.690987"
             id="tspan5433"
             sodipodi:role="line">L</tspan></text>
        <text
           id="text5439"
           y="63.080902"
           x="74.885719"
           style="font-style:normal;font-weight:normal;font-size:10.58333302px;line-height:1.25;font-family:sans-serif;letter-spacing:0px;word-spacing:0px;fill:#000000;fill-opacity:1;stroke:none;stroke-width:0.26458332"
           xml:space="preserve"><tspan
             style="font-style:normal;font-variant:normal;font-weight:normal;font-stretch:normal;font-size:6.3499999px;font-family:'Dumbledor 3';-inkscape-font-specification:'Dumbledor 3, ';text-align:end;text-anchor:end;fill:#368354;fill-opacity:1;stroke-width:0.26458332"
             y="63.080902"
             x="74.885719"
             id="tspan5437"
             sodipodi:role="line">1</tspan></text>
      </g>
      <g
         transform="translate(90.58371)"
         id="g5455">
        <path
           inkscape:connector-curvature="0"
           id="rect1638-1"
           d="m 42.610319,24.596886 c -0.08863,0 -0.174347,0.0065 -0.2589,0.01602 -0.06158,0.0051 -0.123238,0.01341 -0.185002,0.02429 -0.84073,0.112932 -1.411425,0.513778 -2.492354,1.590083 -0.01505,0.01491 -0.03111,0.03008 -0.04599,0.04496 -8.4e-5,8.6e-5 -4.31e-4,-8.6e-5 -5.16e-4,0 -0.0958,0.0958 -0.192084,0.195215 -0.287837,0.297656 -0.09577,0.102449 -0.190513,0.207665 -0.283189,0.315743 -1.59e-4,1.86e-4 -3.57e-4,3.31e-4 -5.16e-4,5.16e-4 -0.185174,0.21599 -0.361235,0.44253 -0.515731,0.674895 -0.15457,0.232526 -0.287658,0.471305 -0.387056,0.712101 -0.09944,0.240824 -0.165214,0.483563 -0.185002,0.724504 -0.0094,0.08387 -0.01596,0.168956 -0.01602,0.256831 v 0.001 5.3e-4 33.999475 5.3e-4 c 0,0.1037 0.0053,0.206028 0.0155,0.306959 0,0 0,5.29e-4 0,5.29e-4 0.01019,0.100925 0.02561,0.200514 0.04548,0.298175 0,0 0,5.29e-4 0,5.29e-4 0.01987,0.09765 0.04432,0.193423 0.07338,0.287321 0,0 0,5.3e-4 0,5.3e-4 0.02908,0.09389 0.063,0.18579 0.100769,0.275436 0,0 0,5.29e-4 0,5.29e-4 0.03779,0.08964 0.0801,0.177102 0.12609,0.261999 0,0 0,5.29e-4 0,5.29e-4 0.046,0.08489 0.09615,0.166838 0.149863,0.246496 0,0 0,5.29e-4 0,5.29e-4 0.215206,0.31908 0.490172,0.594048 0.809252,0.809255 0,0 5.16e-4,0 5.16e-4,0 0.07966,0.05373 0.161599,0.103833 0.246496,0.14986 0,0 5.19e-4,0 5.19e-4,0 0.0849,0.04601 0.172352,0.08828 0.261998,0.12609 0,0 5.18e-4,0 5.18e-4,0 0.08965,0.0378 0.181536,0.07166 0.275434,0.100769 0,0 5.16e-4,0 5.16e-4,0 0.0939,0.02909 0.189664,0.05348 0.287322,0.07338 0,0 5.16e-4,0 5.16e-4,0 0.09766,0.0199 0.197252,0.03526 0.298175,0.04547 0,0 5.29e-4,0 5.29e-4,0 0.100928,0.01019 0.20326,0.01548 0.306959,0.0155 h 34.000496 c 0.08863,0 0.174345,-0.0065 0.258898,-0.01603 0.06158,-0.0051 0.123237,-0.01341 0.185002,-0.02429 0.853244,-0.114612 1.42554,-0.521716 2.538346,-1.634524 1.69e-4,-1.7e-4 2.64e-4,-2.65e-4 5.29e-4,-5.3e-4 0.09563,-0.09563 0.192249,-0.194889 0.287838,-0.29714 1.66e-4,-1.75e-4 2.64e-4,-2.64e-4 5.29e-4,-5.29e-4 0.148532,-0.158904 0.292452,-0.326914 0.431498,-0.498676 0.04014,-0.04959 0.08218,-0.09785 0.120923,-0.148312 8.4e-5,-1.14e-4 -8.8e-5,-5.29e-4 0,-5.29e-4 0.08641,-0.11256 0.169277,-0.226989 0.246496,-0.343133 8.2e-5,-1.27e-4 -8.2e-5,-2.65e-4 0,-5.29e-4 0.0772,-0.116139 0.149492,-0.233725 0.214458,-0.352433 7.4e-5,-1.41e-4 -7.7e-5,-2.65e-4 0,-5.3e-4 0.06494,-0.1187 0.122939,-0.238379 0.172598,-0.358634 6.1e-5,-1.54e-4 -6.3e-5,-2.65e-4 0,-5.3e-4 0.0994,-0.240794 0.16521,-0.483563 0.185,-0.724505 0.009,-0.08387 0.016,-0.168955 0.016,-0.256829 v -0.0011 -5.29e-4 -33.999437 -5.29e-4 c -10e-6,-0.103699 -0.005,-0.20603 -0.0155,-0.306958 0,0 0,-5.29e-4 0,-5.29e-4 -0.0102,-0.100922 -0.0256,-0.20051 -0.0455,-0.298173 0,0 0,-5.16e-4 0,-5.16e-4 -0.0199,-0.09766 -0.04429,-0.193421 -0.07338,-0.287321 0,0 0,-5.16e-4 0,-5.16e-4 -0.0291,-0.0939 -0.06297,-0.185786 -0.100766,-0.275435 0,0 0,-5.16e-4 0,-5.16e-4 -0.03781,-0.08965 -0.08008,-0.177097 -0.126093,-0.261999 0,0 0,-5.16e-4 0,-5.16e-4 -0.04603,-0.0849 -0.09613,-0.166834 -0.149862,-0.246497 0,0 0,-5.16e-4 0,-5.16e-4 -0.0538,-0.07977 -0.111051,-0.156982 -0.172083,-0.230994 -0.06111,-0.07411 -0.125923,-0.144545 -0.193786,-0.21239 -0.135527,-0.135528 -0.28384,-0.258266 -0.443381,-0.365869 0,0 -5.29e-4,0 -5.29e-4,0 -0.07966,-0.05371 -0.161605,-0.103861 -0.246499,-0.149862 0,0 -5.29e-4,0 -5.29e-4,0 -0.0849,-0.04598 -0.17236,-0.0883 -0.262001,-0.12609 0,0 -5.29e-4,0 -5.29e-4,0 -0.08964,-0.03777 -0.181541,-0.07169 -0.275434,-0.10077 0,0 -5.29e-4,0 -5.29e-4,0 -0.0939,-0.02906 -0.18967,-0.0535 -0.287325,-0.07338 0,0 -5.29e-4,0 -5.29e-4,0 -0.09766,-0.01987 -0.197247,-0.03529 -0.298175,-0.04547 0,0 -5.29e-4,0 -5.29e-4,0 -0.100864,-0.01009 -0.203192,-0.01543 -0.306893,-0.01543 h -5.29e-4 z"
           style="fill:#ebcb45;fill-opacity:1;stroke:none;stroke-width:0.5" />
        <rect
           ry="3"
           rx="3"
           y="26.255905"
           x="37.952206"
           height="40"
           width="40"
           id="rect5445"
           style="fill:#f4f098;fill-opacity:1;stroke:none;stroke-width:0.5" />
        <text
           id="text5449"
           y="58.425545"
           x="43.223991"
           style="font-style:normal;font-weight:normal;font-size:10.58333302px;line-height:1.25;font-family:sans-serif;letter-spacing:0px;word-spacing:0px;fill:#000000;fill-opacity:1;stroke:none;stroke-width:0.26458332"
           xml:space="preserve"><tspan
             style="font-style:normal;font-variant:normal;font-weight:normal;font-stretch:normal;font-size:40.56944656px;font-family:'Dumbledor 3';-inkscape-font-specification:'Dumbledor 3, ';fill:#368354;fill-opacity:1;stroke-width:0.26458332"
             y="58.425545"
             x="43.223991"
             id="tspan5447"
             sodipodi:role="line">A</tspan></text>
        <text
           id="text5453"
           y="63.080902"
           x="74.885719"
           style="font-style:normal;font-weight:normal;font-size:10.58333302px;line-height:1.25;font-family:sans-serif;letter-spacing:0px;word-spacing:0px;fill:#000000;fill-opacity:1;stroke:none;stroke-width:0.26458332"
           xml:space="preserve"><tspan
             style="font-style:normal;font-variant:normal;font-weight:normal;font-stretch:normal;font-size:6.3499999px;font-family:'Dumbledor 3';-inkscape-font-specification:'Dumbledor 3, ';text-align:end;text-anchor:end;fill:#368354;fill-opacity:1;stroke-width:0.26458332"
             y="63.080902"
             x="74.885719"
             id="tspan5451"
             sodipodi:role="line">1</tspan></text>
      </g>
      <g
         transform="translate(135.87563)"
         id="g5469">
        <path
           inkscape:connector-curvature="0"
           id="rect1638-2"
           d="m 42.610306,24.596886 c -0.0886,0 -0.17434,0.0065 -0.2589,0.01602 -0.0616,0.0051 -0.12323,0.01341 -0.185,0.02429 -0.84073,0.112932 -1.41142,0.513778 -2.49235,1.590083 -0.0151,0.01491 -0.0311,0.03008 -0.046,0.04496 -9e-5,8.6e-5 -4.3e-4,-8.6e-5 -5.2e-4,0 -0.0958,0.0958 -0.19208,0.195215 -0.28784,0.297656 -0.0958,0.102449 -0.19051,0.207665 -0.28318,0.315743 -1.6e-4,1.86e-4 -3.6e-4,3.3e-4 -5.2e-4,5.16e-4 -0.18517,0.21599 -0.36124,0.44253 -0.51573,0.674895 -0.15457,0.232525 -0.28766,0.471305 -0.38706,0.712101 -0.0994,0.240824 -0.16521,0.483563 -0.185,0.724504 -0.009,0.08387 -0.016,0.168956 -0.016,0.256831 v 0.001 5.29e-4 33.999476 5.3e-4 c 0,0.1037 0.005,0.206028 0.0155,0.306959 0,0 0,5.29e-4 0,5.29e-4 0.0102,0.100925 0.0256,0.200514 0.0455,0.298175 0,0 0,5.29e-4 0,5.29e-4 0.0199,0.09765 0.0443,0.193423 0.0734,0.287321 0,0 0,5.3e-4 0,5.3e-4 0.0291,0.09389 0.063,0.18579 0.10077,0.275436 0,0 0,5.29e-4 0,5.29e-4 0.0378,0.08964 0.0801,0.177102 0.12609,0.261999 0,0 0,5.29e-4 0,5.29e-4 0.046,0.08489 0.0961,0.166838 0.14986,0.246496 0,0 0,5.29e-4 0,5.29e-4 0.21521,0.31908 0.49017,0.594048 0.80925,0.809255 0,0 5.2e-4,0 5.2e-4,0 0.0797,0.05373 0.1616,0.103833 0.2465,0.14986 0,0 5.1e-4,0 5.1e-4,0 0.0849,0.04601 0.17236,0.08828 0.262,0.12609 0,0 5.2e-4,0 5.2e-4,0 0.0897,0.0378 0.18154,0.07166 0.27544,0.100769 0,0 5.1e-4,0 5.1e-4,0 0.0939,0.02909 0.18967,0.05348 0.28732,0.07338 0,0 5.2e-4,0 5.2e-4,0 0.0977,0.0199 0.19725,0.03526 0.29817,0.04547 0,0 5.3e-4,0 5.3e-4,0 0.10093,0.01019 0.20326,0.01548 0.30696,0.0155 h 34.000498 c 0.08863,0 0.174345,-0.0065 0.258898,-0.01603 0.06158,-0.0051 0.123237,-0.01341 0.185002,-0.02429 0.853244,-0.114612 1.42554,-0.521716 2.538346,-1.634524 1.69e-4,-1.7e-4 2.64e-4,-2.65e-4 5.29e-4,-5.3e-4 0.09563,-0.09563 0.192249,-0.194889 0.287838,-0.29714 1.66e-4,-1.75e-4 2.64e-4,-2.64e-4 5.29e-4,-5.29e-4 0.148532,-0.158904 0.292452,-0.326914 0.431498,-0.498676 0.04014,-0.04959 0.08218,-0.09785 0.120923,-0.148312 8.4e-5,-1.14e-4 -8.8e-5,-5.29e-4 0,-5.29e-4 0.08641,-0.11256 0.169277,-0.226989 0.246498,-0.343133 8e-5,-1.27e-4 -8e-5,-2.65e-4 0,-5.29e-4 0.0772,-0.116139 0.14949,-0.233725 0.21446,-0.352433 7e-5,-1.41e-4 -8e-5,-2.65e-4 0,-5.3e-4 0.0649,-0.1187 0.12294,-0.238379 0.17259,-0.358634 7e-5,-1.54e-4 -6e-5,-2.65e-4 0,-5.3e-4 0.0994,-0.240794 0.16522,-0.483563 0.18501,-0.724505 0.009,-0.08387 0.016,-0.168955 0.016,-0.256829 v -0.0011 -5.29e-4 -33.999437 -5.3e-4 c -2e-5,-0.103698 -0.005,-0.206029 -0.0155,-0.306957 0,0 0,-5.3e-4 0,-5.3e-4 -0.0102,-0.100922 -0.0256,-0.20051 -0.0455,-0.298173 0,0 0,-5.16e-4 0,-5.16e-4 -0.0199,-0.09766 -0.0443,-0.193421 -0.0734,-0.287321 0,0 0,-5.16e-4 0,-5.16e-4 -0.0291,-0.0939 -0.063,-0.185786 -0.10077,-0.275435 0,0 0,-5.16e-4 0,-5.16e-4 -0.0378,-0.08965 -0.0801,-0.177097 -0.12609,-0.261999 0,0 0,-5.15e-4 0,-5.15e-4 -0.046,-0.0849 -0.0961,-0.166834 -0.14986,-0.246497 0,0 0,-5.16e-4 0,-5.16e-4 -0.0538,-0.07977 -0.11106,-0.156982 -0.172088,-0.230994 -0.06111,-0.07411 -0.125923,-0.144545 -0.193786,-0.21239 -0.135527,-0.135528 -0.28384,-0.258266 -0.443381,-0.365869 0,0 -5.29e-4,0 -5.29e-4,0 -0.07966,-0.05371 -0.161605,-0.103861 -0.246499,-0.149862 0,0 -5.29e-4,0 -5.29e-4,0 -0.0849,-0.04598 -0.17236,-0.0883 -0.262001,-0.12609 0,0 -5.29e-4,0 -5.29e-4,0 -0.08964,-0.03777 -0.181541,-0.07169 -0.275434,-0.10077 0,0 -5.29e-4,0 -5.29e-4,0 -0.0939,-0.02906 -0.18967,-0.0535 -0.287325,-0.07338 0,0 -5.29e-4,0 -5.29e-4,0 -0.09766,-0.01987 -0.197247,-0.03529 -0.298175,-0.04547 0,0 -5.29e-4,0 -5.29e-4,0 -0.100914,-0.01009 -0.203242,-0.01543 -0.306943,-0.01543 h -5.29e-4 z"
           style="fill:#ebcb45;fill-opacity:1;stroke:none;stroke-width:0.5" />
        <rect
           ry="3"
           rx="3"
           y="26.255905"
           x="37.952206"
           height="40"
           width="40"
           id="rect5459"
           style="fill:#f4f098;fill-opacity:1;stroke:none;stroke-width:0.5" />
        <text
           id="text5463"
           y="58.299957"
           x="44.828545"
           style="font-style:normal;font-weight:normal;font-size:10.58333302px;line-height:1.25;font-family:sans-serif;letter-spacing:0px;word-spacing:0px;fill:#000000;fill-opacity:1;stroke:none;stroke-width:0.26458332"
           xml:space="preserve"><tspan
             style="font-style:normal;font-variant:normal;font-weight:normal;font-stretch:normal;font-size:40.56944275px;font-family:'Dumbledor 3';-inkscape-font-specification:'Dumbledor 3, ';fill:#368354;fill-opacity:1;stroke-width:0.26458332"
             y="58.299957"
             x="44.828545"
             id="tspan5461"
             sodipodi:role="line">N</tspan></text>
        <text
           id="text5467"
           y="63.080902"
           x="74.885719"
           style="font-style:normal;font-weight:normal;font-size:10.58333302px;line-height:1.25;font-family:sans-serif;letter-spacing:0px;word-spacing:0px;fill:#000000;fill-opacity:1;stroke:none;stroke-width:0.26458332"
           xml:space="preserve"><tspan
             style="font-style:normal;font-variant:normal;font-weight:normal;font-stretch:normal;font-size:6.3499999px;font-family:'Dumbledor 3';-inkscape-font-specification:'Dumbledor 3, ';text-align:end;text-anchor:end;fill:#368354;fill-opacity:1;stroke-width:0.26458332"
             y="63.080902"
             x="74.885719"
             id="tspan5465"
             sodipodi:role="line">1</tspan></text>
      </g>
      <g
         transform="translate(181.16755)"
         id="g5483">
        <path
           inkscape:connector-curvature="0"
           id="rect1638-9"
           d="m 42.610306,24.596886 c -0.0886,0 -0.17434,0.0065 -0.2589,0.01602 -0.0616,0.0051 -0.12323,0.01341 -0.185,0.02429 -0.84073,0.112932 -1.41142,0.513778 -2.49235,1.590083 -0.015,0.01491 -0.0311,0.03008 -0.046,0.04496 -9e-5,8.6e-5 -4.3e-4,-8.6e-5 -5.2e-4,0 -0.0958,0.0958 -0.19208,0.195215 -0.28784,0.297656 -0.0958,0.102449 -0.19051,0.207665 -0.28318,0.315743 -1.6e-4,1.86e-4 -3.6e-4,3.31e-4 -5.2e-4,5.16e-4 -0.18517,0.21599 -0.36124,0.44253 -0.51573,0.674895 -0.15457,0.232525 -0.28766,0.471305 -0.38706,0.712101 -0.0994,0.240824 -0.16521,0.483563 -0.185,0.724504 -0.009,0.08387 -0.016,0.168956 -0.016,0.256831 v 0.001 5.29e-4 33.999476 5.3e-4 c 0,0.1037 0.005,0.206028 0.0155,0.306959 0,0 0,5.29e-4 0,5.29e-4 0.0102,0.100925 0.0256,0.200514 0.0455,0.298175 0,0 0,5.29e-4 0,5.29e-4 0.0199,0.09765 0.0443,0.193423 0.0734,0.287321 0,0 0,5.3e-4 0,5.3e-4 0.0291,0.09389 0.063,0.18579 0.10077,0.275436 0,0 0,5.29e-4 0,5.29e-4 0.0378,0.08964 0.0801,0.177102 0.12609,0.261999 0,0 0,5.29e-4 0,5.29e-4 0.046,0.08489 0.0961,0.166838 0.14986,0.246496 0,0 0,5.29e-4 0,5.29e-4 0.21521,0.31908 0.49017,0.594048 0.80925,0.809255 0,0 5.2e-4,0 5.2e-4,0 0.0797,0.05373 0.1616,0.103833 0.2465,0.14986 0,0 5.1e-4,0 5.1e-4,0 0.0849,0.04601 0.17236,0.08828 0.262,0.12609 0,0 5.2e-4,0 5.2e-4,0 0.0896,0.0378 0.18154,0.07166 0.27544,0.100769 0,0 5.1e-4,0 5.1e-4,0 0.0939,0.02909 0.18967,0.05348 0.28732,0.07338 0,0 5.2e-4,0 5.2e-4,0 0.0977,0.0199 0.19725,0.03526 0.29817,0.04547 0,0 5.3e-4,0 5.3e-4,0 0.10093,0.01019 0.20326,0.01548 0.30696,0.0155 h 34.0005 c 0.0886,0 0.17434,-0.0065 0.2589,-0.01603 0.0616,-0.0051 0.12323,-0.01341 0.185,-0.02429 0.85324,-0.114612 1.42554,-0.521716 2.53834,-1.634524 1.7e-4,-1.7e-4 2.7e-4,-2.65e-4 5.3e-4,-5.3e-4 0.0956,-0.09563 0.19225,-0.194889 0.28784,-0.29714 1.7e-4,-1.75e-4 2.7e-4,-2.64e-4 5.3e-4,-5.29e-4 0.14853,-0.158904 0.29245,-0.326914 0.4315,-0.498676 0.0401,-0.04959 0.0822,-0.09785 0.12092,-0.148312 9e-5,-1.14e-4 -9e-5,-5.29e-4 0,-5.29e-4 0.0864,-0.11256 0.16928,-0.226989 0.2465,-0.343133 8e-5,-1.27e-4 -8e-5,-2.65e-4 0,-5.29e-4 0.0772,-0.116139 0.14949,-0.233725 0.21446,-0.352433 7e-5,-1.41e-4 -8e-5,-2.65e-4 0,-5.3e-4 0.0649,-0.1187 0.12293,-0.238379 0.17259,-0.358634 6e-5,-1.54e-4 -6e-5,-2.65e-4 0,-5.3e-4 0.0994,-0.240794 0.16522,-0.483563 0.18501,-0.724505 0.009,-0.08387 0.016,-0.168955 0.016,-0.256829 v -0.0011 -5.29e-4 -33.999437 -5.3e-4 c -1e-5,-0.103699 -0.005,-0.20603 -0.0155,-0.306957 0,0 0,-5.3e-4 0,-5.3e-4 -0.0102,-0.100922 -0.0256,-0.20051 -0.0455,-0.298173 0,0 0,-5.16e-4 0,-5.16e-4 -0.0199,-0.09766 -0.0443,-0.193421 -0.0734,-0.287321 0,0 0,-5.15e-4 0,-5.15e-4 -0.0291,-0.0939 -0.063,-0.185786 -0.10077,-0.275435 0,0 0,-5.16e-4 0,-5.16e-4 -0.0378,-0.08965 -0.0801,-0.177097 -0.12609,-0.261999 0,0 0,-5.16e-4 0,-5.16e-4 -0.046,-0.0849 -0.0961,-0.166834 -0.14986,-0.246497 0,0 0,-5.16e-4 0,-5.16e-4 -0.0538,-0.07977 -0.11106,-0.156982 -0.17209,-0.230994 -0.0611,-0.07411 -0.12592,-0.144545 -0.19378,-0.21239 -0.13553,-0.135528 -0.28384,-0.258266 -0.44338,-0.365869 0,0 -5.3e-4,0 -5.3e-4,0 -0.0797,-0.05371 -0.16161,-0.103861 -0.2465,-0.149862 0,0 -5.3e-4,0 -5.3e-4,0 -0.0849,-0.04598 -0.17236,-0.0883 -0.262,-0.12609 0,0 -5.3e-4,0 -5.3e-4,0 -0.0896,-0.03777 -0.18154,-0.07169 -0.27544,-0.10077 0,0 -5.2e-4,0 -5.2e-4,0 -0.0939,-0.02906 -0.18967,-0.0535 -0.28733,-0.07338 0,0 -5.3e-4,0 -5.3e-4,0 -0.0977,-0.01987 -0.19724,-0.03529 -0.29817,-0.04547 0,0 -5.3e-4,0 -5.3e-4,0 -0.10086,-0.01009 -0.20319,-0.01543 -0.30689,-0.01543 h -5.3e-4 z"
           style="fill:#ebcb45;fill-opacity:1;stroke:none;stroke-width:0.5" />
        <rect
           ry="3"
           rx="3"
           y="26.255905"
           x="37.952206"
           height="40"
           width="40"
           id="rect5473"
           style="fill:#f4f098;fill-opacity:1;stroke:none;stroke-width:0.5" />
        <text
           id="text5477"
           y="58.101868"
           x="44.026268"
           style="font-style:normal;font-weight:normal;font-size:10.58333302px;line-height:1.25;font-family:sans-serif;letter-spacing:0px;word-spacing:0px;fill:#000000;fill-opacity:1;stroke:none;stroke-width:0.26458332"
           xml:space="preserve"><tspan
             style="font-style:normal;font-variant:normal;font-weight:normal;font-stretch:normal;font-size:40.56945038px;font-family:'Dumbledor 3';-inkscape-font-specification:'Dumbledor 3, ';fill:#368354;fill-opacity:1;stroke-width:0.26458332"
             y="58.101868"
             x="44.026268"
             id="tspan5475"
             sodipodi:role="line">G</tspan></text>
        <text
           id="text5481"
           y="63.071602"
           x="74.885719"
           style="font-style:normal;font-weight:normal;font-size:10.58333302px;line-height:1.25;font-family:sans-serif;letter-spacing:0px;word-spacing:0px;fill:#000000;fill-opacity:1;stroke:none;stroke-width:0.26458332"
           xml:space="preserve"><tspan
             style="font-style:normal;font-variant:normal;font-weight:normal;font-stretch:normal;font-size:6.3499999px;font-family:'Dumbledor 3';-inkscape-font-specification:'Dumbledor 3, ';text-align:end;text-anchor:end;fill:#368354;fill-opacity:1;stroke-width:0.26458332"
             y="63.071602"
             x="74.885719"
             id="tspan5479"
             sodipodi:role="line">2</tspan></text>
      </g>
    </g>
    <text
       xml:space="preserve"
       style="font-style:normal;font-weight:normal;font-size:10.58335686px;line-height:1.25;font-family:sans-serif;letter-spacing:0px;word-spacing:0px;fill:#000000;fill-opacity:1;stroke:none;stroke-width:0.26458392"
       x="91.721275"
       y="281.42804"
       id="text5596"
       transform="scale(1.0000023,0.99999771)"><tspan
         sodipodi:role="line"
         id="tspan5594"
         x="91.721275"
         y="281.42804"
         style="font-style:normal;font-variant:normal;font-weight:normal;font-stretch:normal;font-size:16.93337059px;font-family:'Ants Valley - Personal Use';-inkscape-font-specification:'Ants Valley - Personal Use';fill:#ffffff;stroke-width:0.26458392">Compiler</tspan></text>
  </g>
</svg>
