<?xml version="1.0" encoding="UTF-8" standalone="no"?>
<!-- Created with Inkscape (http://www.inkscape.org/) -->

<svg
   xmlns:dc="http://purl.org/dc/elements/1.1/"
   xmlns:cc="http://creativecommons.org/ns#"
   xmlns:rdf="http://www.w3.org/1999/02/22-rdf-syntax-ns#"
   xmlns:svg="http://www.w3.org/2000/svg"
   xmlns="http://www.w3.org/2000/svg"
   xmlns:sodipodi="http://sodipodi.sourceforge.net/DTD/sodipodi-0.dtd"
   xmlns:inkscape="http://www.inkscape.org/namespaces/inkscape"
   width="263mm"
   height="102mm"
   viewBox="0 0 263 102"
   version="1.1"
   id="svg1091"
   inkscape:version="0.92.4 5da689c313, 2019-01-14"
   sodipodi:docname="logo_paths.svg">
  <defs
     id="defs1085" />
  <sodipodi:namedview
     id="base"
     pagecolor="#ffffff"
     bordercolor="#666666"
     borderopacity="1.0"
     inkscape:pageopacity="0.0"
     inkscape:pageshadow="2"
     inkscape:zoom="0.7"
     inkscape:cx="530.69879"
     inkscape:cy="88.997422"
     inkscape:document-units="mm"
     inkscape:current-layer="layer1"
     showgrid="false"
     inkscape:window-width="1366"
     inkscape:window-height="713"
     inkscape:window-x="0"
     inkscape:window-y="27"
     inkscape:window-maximized="1" />
  <metadata
     id="metadata1088">
    <rdf:RDF>
      <cc:Work
         rdf:about="">
        <dc:format>image/svg+xml</dc:format>
        <dc:type
           rdf:resource="http://purl.org/dc/dcmitype/StillImage" />
        <dc:title></dc:title>
      </cc:Work>
    </rdf:RDF>
  </metadata>
  <g
     inkscape:label="Layer 1"
     inkscape:groupmode="layer"
     id="layer1"
     transform="translate(0,-195)">
    <path
       style="fill:#368354;fill-opacity:1;stroke:none;stroke-width:0.47371164"
       d="m 6,195 h 251 c 3.324,0 6,2.676 6,6 v 90 c 0,3.324 -2.676,6 -6,6 H 6 c -3.324,0 -6,-2.676 -6,-6 v -90 c 0,-3.324 2.676,-6 6,-6 z"
       id="rect5592" />
    <path
       style="fill:#ebcb45;fill-opacity:1;stroke:none;stroke-width:0.5"
       d="m 24.745094,214.87889 c -0.08863,0 -0.174347,0.006 -0.2589,0.016 -0.06158,0.005 -0.123238,0.0134 -0.185002,0.0243 -0.84073,0.11293 -1.411425,0.51378 -2.492354,1.59008 -0.01505,0.0149 -0.03111,0.0301 -0.04599,0.045 -8.4e-5,9e-5 -4.31e-4,-8e-5 -5.15e-4,0 -0.0958,0.0958 -0.192085,0.19522 -0.287838,0.29766 -0.09577,0.10245 -0.190513,0.20766 -0.283189,0.31574 -1.59e-4,1.9e-4 -3.57e-4,3.3e-4 -5.16e-4,5.2e-4 -0.185174,0.21599 -0.361235,0.44253 -0.515731,0.67489 -0.15457,0.23253 -0.287658,0.47131 -0.387056,0.7121 -0.09944,0.24083 -0.165214,0.48357 -0.185002,0.72451 -0.0094,0.0839 -0.01596,0.16895 -0.01602,0.25683 v 0.001 5.1e-4 33.99948 5.1e-4 c 0,0.10371 0.0053,0.20603 0.0155,0.30696 0,0 0,5.2e-4 0,5.2e-4 0.01019,0.10092 0.02561,0.20051 0.04548,0.29817 0,0 0,5.2e-4 0,5.2e-4 0.01987,0.0976 0.04432,0.19342 0.07338,0.28732 0,0 0,5.2e-4 0,5.2e-4 0.02908,0.0939 0.063,0.18579 0.100769,0.27543 0,0 0,5.2e-4 0,5.2e-4 0.03779,0.0896 0.0801,0.1771 0.12609,0.262 0,0 0,5.2e-4 0,5.2e-4 0.046,0.0849 0.09615,0.16684 0.149863,0.24649 0,0 0,5.2e-4 0,5.2e-4 0.215206,0.31908 0.490172,0.59405 0.809252,0.80925 0,0 5.16e-4,0 5.16e-4,0 0.07966,0.0537 0.161599,0.10384 0.246496,0.14987 0,0 5.19e-4,0 5.19e-4,0 0.0849,0.046 0.172352,0.0883 0.261998,0.12608 0,0 5.18e-4,0 5.18e-4,0 0.08965,0.0378 0.181536,0.0717 0.275434,0.10077 0,0 5.16e-4,0 5.16e-4,0 0.0939,0.0291 0.189664,0.0535 0.287322,0.0734 0,0 5.16e-4,0 5.16e-4,0 0.09766,0.0199 0.197252,0.0353 0.298175,0.0455 0,0 5.16e-4,0 5.16e-4,0 0.100928,0.0102 0.20326,0.0155 0.306959,0.0155 h 34.000508 c 0.08863,0 0.174345,-0.007 0.258897,-0.016 0.06158,-0.005 0.123238,-0.0134 0.185002,-0.0243 0.853245,-0.11461 1.425541,-0.52171 2.538347,-1.63452 1.69e-4,-1.7e-4 3.49e-4,-3.5e-4 5.16e-4,-5.2e-4 0.09563,-0.0956 0.192249,-0.19489 0.287837,-0.29714 1.67e-4,-1.7e-4 3.55e-4,-3.4e-4 5.19e-4,-5.2e-4 0.148532,-0.1589 0.292452,-0.32691 0.431498,-0.49867 0.04014,-0.0496 0.08218,-0.0979 0.120923,-0.14831 8.4e-5,-1.2e-4 -8.8e-5,-4.1e-4 0,-5.2e-4 0.08641,-0.11256 0.169277,-0.22699 0.246496,-0.34313 8.2e-5,-1.3e-4 -8.2e-5,-3.9e-4 0,-5.2e-4 0.0772,-0.11614 0.149492,-0.23372 0.214458,-0.35243 7.4e-5,-1.4e-4 -7.7e-5,-3.8e-4 0,-5.2e-4 0.06494,-0.1187 0.122939,-0.23838 0.172598,-0.35863 6.1e-5,-1.5e-4 -6.3e-5,-3.7e-4 0,-5.2e-4 0.0994,-0.2408 0.165214,-0.48356 0.185002,-0.7245 0.0094,-0.0839 0.01596,-0.16896 0.01602,-0.25684 v -9.9e-4 -5.2e-4 -33.99948 -5.1e-4 c -1.3e-5,-0.1037 -0.0053,-0.20603 -0.0155,-0.30696 0,0 0,-5.2e-4 0,-5.2e-4 -0.01021,-0.10092 -0.02559,-0.20051 -0.04547,-0.29817 0,0 0,-5.2e-4 0,-5.2e-4 -0.0199,-0.0977 -0.04429,-0.19342 -0.07338,-0.28732 0,0 0,-5.1e-4 0,-5.1e-4 -0.0291,-0.0939 -0.06297,-0.18579 -0.100769,-0.27544 0,0 0,-5.2e-4 0,-5.2e-4 -0.03781,-0.0897 -0.08008,-0.17709 -0.12609,-0.262 0,0 0,-5.1e-4 0,-5.1e-4 -0.04603,-0.0849 -0.09613,-0.16684 -0.149863,-0.2465 0,0 0,-5.2e-4 0,-5.2e-4 -0.0538,-0.0798 -0.111053,-0.15698 -0.172082,-0.23099 -0.06111,-0.0741 -0.125923,-0.14455 -0.193786,-0.21239 -0.135528,-0.13553 -0.283842,-0.25827 -0.443383,-0.36587 0,0 -5.16e-4,0 -5.16e-4,0 -0.07966,-0.0537 -0.161603,-0.10386 -0.246497,-0.14986 0,0 -5.18e-4,0 -5.18e-4,0 -0.0849,-0.046 -0.172358,-0.0883 -0.261999,-0.12609 0,0 -5.16e-4,0 -5.16e-4,0 -0.08964,-0.0378 -0.181541,-0.0717 -0.275436,-0.10077 0,0 -5.16e-4,0 -5.16e-4,0 -0.0939,-0.0291 -0.189667,-0.0535 -0.287322,-0.0734 0,0 -5.16e-4,0 -5.16e-4,0 -0.09766,-0.0199 -0.197249,-0.0353 -0.298175,-0.0455 0,0 -5.15e-4,0 -5.15e-4,0 -0.100931,-0.0102 -0.203256,-0.0155 -0.306959,-0.0155 h -5.16e-4 z"
       id="rect1638"
       inkscape:connector-curvature="0" />
    <path
       style="fill:#f4f098;fill-opacity:1;stroke:none;stroke-width:0.5"
       d="m 23.086979,216.53784 h 34 c 1.662,0 3,1.338 3,3 v 34 c 0,1.662 -1.338,3 -3,3 h -34 c -1.662,0 -3,-1.338 -3,-3 v -34 c 0,-1.662 1.338,-3 3,-3 z"
       id="rect5345" />
    <g
       aria-label="S"
       style="font-style:normal;font-weight:normal;font-size:10.58333302px;line-height:1.25;font-family:sans-serif;letter-spacing:0px;word-spacing:0px;fill:#000000;fill-opacity:1;stroke:none;stroke-width:0.26458332"
       id="text5415">
      <path
         d="m 49.318114,241.51988 q 0,3.66472 -3.367581,5.60603 -2.793111,1.60455 -6.814399,1.60455 -3.882623,0 -8.280288,-1.78284 1.14894,-2.57521 1.208368,-2.87235 0.138665,-0.59427 0.158474,-3.2091 2.951586,5.9626 7.725627,5.9626 5.744697,0 5.744697,-3.48644 0,-2.89216 -3.446818,-4.15995 l -7.091729,-1.82246 q -4.140144,-1.52531 -4.140144,-5.3287 0,-3.05063 2.81292,-5.36832 1.921503,-1.58474 3.545865,-2.02055 1.109321,-0.29714 3.545865,-0.29714 3.605292,0 7.052111,1.52532 l -0.455614,1.01027 q -0.396186,0.57447 -0.633898,1.30742 l -0.03962,0.49523 q 0.03962,0.67351 0.03962,1.03008 0,0.25752 -0.01981,0.35657 -0.118856,0.31695 -0.931037,0.95085 -1.188558,-4.79385 -6.22012,-4.79385 -2.317689,0 -3.644912,1.14893 -1.40646,1.20837 -1.40646,3.50625 0,2.41674 3.4072,3.34777 l 7.111538,1.96112 q 4.140144,1.66398 4.140144,5.32871 z"
         style="font-style:normal;font-variant:normal;font-weight:normal;font-stretch:normal;font-size:40.56944656px;font-family:'Dumbledor 3';-inkscape-font-specification:'Dumbledor 3, ';fill:#368354;fill-opacity:1;stroke-width:0.26458332"
         id="path1065" />
    </g>
    <g
       aria-label="1"
       style="font-style:normal;font-weight:normal;font-size:10.58333302px;line-height:1.25;font-family:sans-serif;letter-spacing:0px;word-spacing:0px;fill:#000000;fill-opacity:1;stroke:none;stroke-width:0.26458332"
       id="text5419">
      <path
         d="m 56.911972,253.36284 h -0.948779 q 0.139526,-0.16743 0.167431,-0.27595 l 0.0186,-0.25425 v -2.54248 q -0.0124,0.003 -0.0217,0.003 l -0.127124,-0.0186 h -0.07131 l -0.331762,0.0372 0.133325,-0.10232 q 0.0062,-0.006 0.520898,-0.28215 0.325562,-0.17363 0.483692,-0.32866 -0.0186,0.0775 -0.02791,0.0837 v -0.003 q 0.0093,0.0589 0.0093,0.36897 v 2.92696 q 0,0.062 0.0124,0.12712 0,0.0744 0.182935,0.26045 z"
         style="font-style:normal;font-variant:normal;font-weight:normal;font-stretch:normal;font-size:6.3499999px;font-family:'Dumbledor 3';-inkscape-font-specification:'Dumbledor 3, ';text-align:end;text-anchor:end;fill:#368354;fill-opacity:1;stroke-width:0.26458332"
         id="path1062" />
    </g>
    <path
       inkscape:connector-curvature="0"
       id="rect1638-8"
       d="m 70.036904,214.87883 c -0.08863,0 -0.174347,0.007 -0.2589,0.016 -0.06158,0.005 -0.123238,0.0134 -0.185002,0.0243 -0.84073,0.11293 -1.411425,0.51377 -2.492354,1.59008 -0.01505,0.0149 -0.03111,0.0301 -0.04599,0.045 -8.4e-5,8e-5 -4.31e-4,-9e-5 -5.16e-4,0 -0.0958,0.0958 -0.192084,0.19521 -0.287837,0.29765 -0.09577,0.10245 -0.190513,0.20767 -0.283189,0.31575 -1.59e-4,1.8e-4 -3.57e-4,3.3e-4 -5.16e-4,5.1e-4 -0.185174,0.21599 -0.361235,0.44253 -0.515731,0.6749 -0.15457,0.23252 -0.287658,0.4713 -0.387056,0.7121 -0.09944,0.24082 -0.165214,0.48356 -0.185002,0.7245 -0.0094,0.0839 -0.01596,0.16896 -0.01602,0.25683 v 0.001 5.3e-4 33.99948 5.3e-4 c 0,0.1037 0.0053,0.20603 0.0155,0.30696 0,0 0,5.3e-4 0,5.3e-4 0.01019,0.10092 0.02561,0.20051 0.04548,0.29817 0,0 0,5.3e-4 0,5.3e-4 0.01987,0.0977 0.04432,0.19342 0.07338,0.28732 0,0 0,5.3e-4 0,5.3e-4 0.02908,0.0939 0.063,0.18579 0.100769,0.27544 0,0 0,5.3e-4 0,5.3e-4 0.03779,0.0896 0.0801,0.1771 0.12609,0.262 0,0 0,5.3e-4 0,5.3e-4 0.046,0.0849 0.09615,0.16683 0.149863,0.24649 0,0 0,5.3e-4 0,5.3e-4 0.215206,0.31908 0.490172,0.59405 0.809252,0.80926 0,0 5.16e-4,0 5.16e-4,0 0.07966,0.0537 0.161599,0.10383 0.246496,0.14986 0,0 5.19e-4,0 5.19e-4,0 0.0849,0.046 0.172352,0.0883 0.261998,0.12609 0,0 5.18e-4,0 5.18e-4,0 0.08965,0.0378 0.181536,0.0717 0.275434,0.10077 0,0 5.16e-4,0 5.16e-4,0 0.0939,0.0291 0.189664,0.0535 0.287322,0.0734 0,0 5.16e-4,0 5.16e-4,0 0.09766,0.0199 0.197252,0.0353 0.298175,0.0455 0,0 5.29e-4,0 5.29e-4,0 0.100928,0.0102 0.20326,0.0155 0.306959,0.0155 h 34.000497 c 0.0886,0 0.17434,-0.007 0.2589,-0.016 0.0616,-0.005 0.12323,-0.0134 0.185,-0.0243 0.85324,-0.11461 1.42554,-0.52171 2.53834,-1.63452 1.7e-4,-1.7e-4 2.7e-4,-2.6e-4 5.3e-4,-5.3e-4 0.0956,-0.0956 0.19225,-0.19489 0.28784,-0.29714 1.7e-4,-1.7e-4 2.7e-4,-2.6e-4 5.3e-4,-5.3e-4 0.14853,-0.1589 0.29245,-0.32691 0.4315,-0.49867 0.0401,-0.0496 0.0822,-0.0978 0.12092,-0.14832 9e-5,-1.1e-4 -9e-5,-5.3e-4 0,-5.3e-4 0.0864,-0.11256 0.16928,-0.22698 0.24649,-0.34313 9e-5,-1.3e-4 -8e-5,-2.6e-4 0,-5.3e-4 0.0772,-0.11614 0.1495,-0.23372 0.21446,-0.35243 8e-5,-1.4e-4 -8e-5,-2.7e-4 0,-5.3e-4 0.0649,-0.1187 0.12294,-0.23838 0.1726,-0.35863 6e-5,-1.6e-4 -6e-5,-2.7e-4 0,-5.3e-4 0.0994,-0.2408 0.16521,-0.48357 0.185,-0.72451 0.009,-0.0839 0.016,-0.16895 0.016,-0.25683 v -0.001 -5.3e-4 -33.99943 -5.3e-4 c -10e-6,-0.1037 -0.005,-0.20603 -0.0155,-0.30696 0,0 0,-5.3e-4 0,-5.3e-4 -0.0102,-0.10092 -0.0256,-0.20051 -0.0455,-0.29817 0,0 0,-5.2e-4 0,-5.2e-4 -0.0199,-0.0977 -0.0443,-0.19342 -0.0734,-0.28732 0,0 0,-5.2e-4 0,-5.2e-4 -0.0291,-0.0939 -0.063,-0.18578 -0.10076,-0.27543 0,0 0,-5.2e-4 0,-5.2e-4 -0.0378,-0.0896 -0.0801,-0.17709 -0.1261,-0.262 0,0 0,-5.1e-4 0,-5.1e-4 -0.046,-0.0849 -0.0961,-0.16684 -0.14986,-0.2465 0,0 0,-5.2e-4 0,-5.2e-4 -0.0538,-0.0798 -0.11105,-0.15698 -0.17208,-0.23099 -0.0611,-0.0741 -0.12592,-0.14454 -0.19378,-0.21239 -0.13553,-0.13553 -0.28384,-0.25827 -0.44338,-0.36587 0,0 -5.3e-4,0 -5.3e-4,0 -0.0797,-0.0537 -0.16161,-0.10386 -0.2465,-0.14986 0,0 -5.3e-4,0 -5.3e-4,0 -0.0849,-0.046 -0.17236,-0.0883 -0.262,-0.12609 0,0 -5.3e-4,0 -5.3e-4,0 -0.0896,-0.0378 -0.18154,-0.0717 -0.27544,-0.10077 0,0 -5.2e-4,0 -5.2e-4,0 -0.0939,-0.0291 -0.18967,-0.0535 -0.28733,-0.0734 0,0 -5.3e-4,0 -5.3e-4,0 -0.0977,-0.0199 -0.19724,-0.0353 -0.29817,-0.0455 0,0 -5.3e-4,0 -5.3e-4,0 -0.10086,-0.0101 -0.20318,-0.0154 -0.30689,-0.0154 h -5.2e-4 z"
       style="fill:#ebcb45;fill-opacity:1;stroke:none;stroke-width:0.5" />
    <path
       style="fill:#f4f098;fill-opacity:1;stroke:none;stroke-width:0.5"
       d="m 68.378792,216.53784 h 33.999998 c 1.662,0 3,1.338 3,3 v 34 c 0,1.662 -1.338,3 -3,3 H 68.378792 c -1.662,0 -3,-1.338 -3,-3 v -34 c 0,-1.662 1.338,-3 3,-3 z"
       id="rect5431" />
    <g
       aria-label="L"
       style="font-style:normal;font-weight:normal;font-size:10.58333302px;line-height:1.25;font-family:sans-serif;letter-spacing:0px;word-spacing:0px;fill:#000000;fill-opacity:1;stroke:none;stroke-width:0.26458332"
       id="text5435">
      <path
         d="m 94.926869,243.08482 q -2.159214,3.60529 -2.159214,6.27955 -1.862074,-1.2678 -7.547343,-1.16875 l -7.527534,0.13866 q 1.168749,-1.46589 1.347032,-2.07997 l 0.118856,-1.62437 v -15.90686 q 0,-1.28761 -0.653707,-2.53559 -0.891418,-1.6838 -2.674255,-2.47617 h 6.953064 v 22.24585 q 0.05943,0.0594 0.435805,0.17828 0.732944,0.23771 1.862074,0.23771 5.526795,0 9.845222,-3.28834 z"
         style="font-style:normal;font-variant:normal;font-weight:normal;font-stretch:normal;font-size:40.56944656px;font-family:'Dumbledor 3';-inkscape-font-specification:'Dumbledor 3, ';fill:#368354;fill-opacity:1;stroke-width:0.26458332"
         id="path1072" />
    </g>
    <g
       aria-label="1"
       style="font-style:normal;font-weight:normal;font-size:10.58333302px;line-height:1.25;font-family:sans-serif;letter-spacing:0px;word-spacing:0px;fill:#000000;fill-opacity:1;stroke:none;stroke-width:0.26458332"
       id="text5439">
      <path
         d="M 102.20378,253.36284 H 101.255 q 0.13953,-0.16743 0.16743,-0.27595 l 0.0186,-0.25425 v -2.54248 q -0.0124,0.003 -0.0217,0.003 l -0.12712,-0.0186 h -0.0713 l -0.33177,0.0372 0.13333,-0.10232 q 0.006,-0.006 0.5209,-0.28215 0.32556,-0.17363 0.48369,-0.32866 -0.0186,0.0775 -0.0279,0.0837 v -0.003 q 0.009,0.0589 0.009,0.36897 v 2.92696 q 0,0.062 0.0124,0.12712 0,0.0744 0.18293,0.26045 z"
         style="font-style:normal;font-variant:normal;font-weight:normal;font-stretch:normal;font-size:6.3499999px;font-family:'Dumbledor 3';-inkscape-font-specification:'Dumbledor 3, ';text-align:end;text-anchor:end;fill:#368354;fill-opacity:1;stroke-width:0.26458332"
         id="path1069" />
    </g>
    <path
       inkscape:connector-curvature="0"
       id="rect1638-1"
       d="m 115.3288,214.87883 c -0.0886,0 -0.17434,0.007 -0.2589,0.016 -0.0616,0.005 -0.12324,0.0134 -0.185,0.0243 -0.84073,0.11293 -1.41142,0.51377 -2.49235,1.59008 -0.0151,0.0149 -0.0311,0.0301 -0.046,0.045 -9e-5,8e-5 -4.3e-4,-9e-5 -5.2e-4,0 -0.0958,0.0958 -0.19208,0.19521 -0.28784,0.29765 -0.0958,0.10245 -0.19051,0.20767 -0.28319,0.31575 -1.5e-4,1.8e-4 -3.5e-4,3.3e-4 -5.1e-4,5.1e-4 -0.18517,0.21599 -0.36124,0.44253 -0.51573,0.6749 -0.15457,0.23252 -0.28766,0.4713 -0.38706,0.7121 -0.0994,0.24082 -0.16521,0.48356 -0.185,0.7245 -0.009,0.0839 -0.016,0.16896 -0.016,0.25683 v 0.001 5.3e-4 33.99948 5.3e-4 c 0,0.1037 0.005,0.20603 0.0155,0.30696 0,0 0,5.3e-4 0,5.3e-4 0.0102,0.10092 0.0256,0.20051 0.0455,0.29817 0,0 0,5.3e-4 0,5.3e-4 0.0199,0.0977 0.0443,0.19342 0.0734,0.28732 0,0 0,5.3e-4 0,5.3e-4 0.0291,0.0939 0.063,0.18579 0.10077,0.27544 0,0 0,5.3e-4 0,5.3e-4 0.0378,0.0896 0.0801,0.1771 0.12609,0.262 0,0 0,5.3e-4 0,5.3e-4 0.046,0.0849 0.0962,0.16683 0.14986,0.24649 0,0 0,5.3e-4 0,5.3e-4 0.21521,0.31908 0.49017,0.59405 0.80925,0.80926 0,0 5.2e-4,0 5.2e-4,0 0.0797,0.0537 0.1616,0.10383 0.2465,0.14986 0,0 5.2e-4,0 5.2e-4,0 0.0849,0.046 0.17235,0.0883 0.26199,0.12609 0,0 5.2e-4,0 5.2e-4,0 0.0897,0.0378 0.18154,0.0717 0.27544,0.10077 0,0 5.1e-4,0 5.1e-4,0 0.0939,0.0291 0.18966,0.0535 0.28732,0.0734 0,0 5.2e-4,0 5.2e-4,0 0.0977,0.0199 0.19725,0.0353 0.29817,0.0455 0,0 5.3e-4,0 5.3e-4,0 0.10093,0.0102 0.20326,0.0155 0.30696,0.0155 h 34.0005 c 0.0886,0 0.17434,-0.007 0.2589,-0.016 0.0616,-0.005 0.12323,-0.0134 0.185,-0.0243 0.85324,-0.11461 1.42554,-0.52171 2.53834,-1.63452 1.7e-4,-1.7e-4 2.7e-4,-2.6e-4 5.3e-4,-5.3e-4 0.0956,-0.0956 0.19225,-0.19489 0.28784,-0.29714 1.7e-4,-1.7e-4 2.6e-4,-2.6e-4 5.3e-4,-5.3e-4 0.14853,-0.1589 0.29245,-0.32691 0.4315,-0.49867 0.0401,-0.0496 0.0822,-0.0978 0.12092,-0.14832 8e-5,-1.1e-4 -9e-5,-5.3e-4 0,-5.3e-4 0.0864,-0.11256 0.16928,-0.22698 0.2465,-0.34313 8e-5,-1.3e-4 -9e-5,-2.6e-4 0,-5.3e-4 0.0772,-0.11614 0.14949,-0.23372 0.21445,-0.35243 8e-5,-1.4e-4 -7e-5,-2.7e-4 0,-5.3e-4 0.0649,-0.1187 0.12294,-0.23838 0.1726,-0.35863 6e-5,-1.6e-4 -6e-5,-2.7e-4 0,-5.3e-4 0.0994,-0.2408 0.16521,-0.48357 0.185,-0.72451 0.009,-0.0839 0.016,-0.16895 0.016,-0.25683 v -0.001 -5.3e-4 -33.99943 -5.3e-4 c -1e-5,-0.1037 -0.005,-0.20603 -0.0155,-0.30696 0,0 0,-5.3e-4 0,-5.3e-4 -0.0102,-0.10092 -0.0256,-0.20051 -0.0455,-0.29817 0,0 0,-5.2e-4 0,-5.2e-4 -0.0199,-0.0977 -0.0443,-0.19342 -0.0734,-0.28732 0,0 0,-5.2e-4 0,-5.2e-4 -0.0291,-0.0939 -0.063,-0.18578 -0.10076,-0.27543 0,0 0,-5.2e-4 0,-5.2e-4 -0.0378,-0.0896 -0.0801,-0.17709 -0.1261,-0.262 0,0 0,-5.1e-4 0,-5.1e-4 -0.046,-0.0849 -0.0961,-0.16684 -0.14986,-0.2465 0,0 0,-5.2e-4 0,-5.2e-4 -0.0538,-0.0798 -0.11105,-0.15698 -0.17208,-0.23099 -0.0611,-0.0741 -0.12592,-0.14454 -0.19379,-0.21239 -0.13552,-0.13553 -0.28384,-0.25827 -0.44338,-0.36587 0,0 -5.3e-4,0 -5.3e-4,0 -0.0797,-0.0537 -0.1616,-0.10386 -0.2465,-0.14986 0,0 -5.3e-4,0 -5.3e-4,0 -0.0849,-0.046 -0.17236,-0.0883 -0.262,-0.12609 0,0 -5.3e-4,0 -5.3e-4,0 -0.0896,-0.0378 -0.18154,-0.0717 -0.27543,-0.10077 0,0 -5.3e-4,0 -5.3e-4,0 -0.0939,-0.0291 -0.18967,-0.0535 -0.28732,-0.0734 0,0 -5.3e-4,0 -5.3e-4,0 -0.0977,-0.0199 -0.19725,-0.0353 -0.29818,-0.0455 0,0 -5.3e-4,0 -5.3e-4,0 -0.10086,-0.0101 -0.20319,-0.0154 -0.30689,-0.0154 h -5.3e-4 z"
       style="fill:#ebcb45;fill-opacity:1;stroke:none;stroke-width:0.5" />
    <path
       style="fill:#f4f098;fill-opacity:1;stroke:none;stroke-width:0.5"
       d="m 113.67069,216.53784 h 34 c 1.662,0 3,1.338 3,3 v 34 c 0,1.662 -1.338,3 -3,3 h -34 c -1.662,0 -3,-1.338 -3,-3 v -34 c 0,-1.662 1.338,-3 3,-3 z"
       id="rect5445" />
    <g
       aria-label="A"
       style="font-style:normal;font-weight:normal;font-size:10.58333302px;line-height:1.25;font-family:sans-serif;letter-spacing:0px;word-spacing:0px;fill:#000000;fill-opacity:1;stroke:none;stroke-width:0.26458332"
       id="text5449">
      <path
         d="m 144.68576,248.7273 h -6.67573 q -0.61409,-2.06017 -2.13941,-5.22966 l -2.19883,-4.55614 q -2.79311,0.55466 -7.32944,3.62511 -5.03156,3.4072 -5.03156,5.72488 0,0.21791 0.0792,0.416 l -1.38665,0.0198 -3.34777,-0.0198 q 1.30742,-0.91123 5.30889,-8.75571 1.9017,-3.70434 6.00222,-11.90539 0.0396,-0.19809 0.0396,-0.39619 0,-1.18855 -1.26779,-2.15921 -0.69333,-0.416 -1.36685,-0.8518 l 3.8232,-0.27733 q 1.72341,-0.11886 2.21864,0.81218 1.62436,3.09025 4.21938,8.99342 2.71388,6.22012 4.14014,9.03304 1.12913,2.21865 2.09979,3.36758 1.16875,1.36685 2.81292,2.15922 z m -11.58844,-10.89512 -3.843,-7.36906 -6.43803,12.26196 q 1.28761,-1.4857 4.95233,-2.9912 0.77256,-0.31695 5.3287,-1.9017 z"
         style="font-style:normal;font-variant:normal;font-weight:normal;font-stretch:normal;font-size:40.56944656px;font-family:'Dumbledor 3';-inkscape-font-specification:'Dumbledor 3, ';fill:#368354;fill-opacity:1;stroke-width:0.26458332"
         id="path1079" />
    </g>
    <g
       aria-label="1"
       style="font-style:normal;font-weight:normal;font-size:10.58333302px;line-height:1.25;font-family:sans-serif;letter-spacing:0px;word-spacing:0px;fill:#000000;fill-opacity:1;stroke:none;stroke-width:0.26458332"
       id="text5453">
      <path
         d="m 147.49568,253.36284 h -0.94878 q 0.13953,-0.16743 0.16743,-0.27595 l 0.0186,-0.25425 v -2.54248 q -0.0124,0.003 -0.0217,0.003 l -0.12712,-0.0186 h -0.0713 l -0.33177,0.0372 0.13333,-0.10232 q 0.006,-0.006 0.5209,-0.28215 0.32556,-0.17363 0.48369,-0.32866 -0.0186,0.0775 -0.0279,0.0837 v -0.003 q 0.009,0.0589 0.009,0.36897 v 2.92696 q 0,0.062 0.0124,0.12712 0,0.0744 0.18293,0.26045 z"
         style="font-style:normal;font-variant:normal;font-weight:normal;font-stretch:normal;font-size:6.3499999px;font-family:'Dumbledor 3';-inkscape-font-specification:'Dumbledor 3, ';text-align:end;text-anchor:end;fill:#368354;fill-opacity:1;stroke-width:0.26458332"
         id="path1076" />
    </g>
    <path
       inkscape:connector-curvature="0"
       id="rect1638-2"
       d="m 160.62071,214.87883 c -0.0886,0 -0.17434,0.007 -0.2589,0.016 -0.0616,0.005 -0.12323,0.0134 -0.185,0.0243 -0.84073,0.11293 -1.41142,0.51377 -2.49235,1.59008 -0.0151,0.0149 -0.0311,0.0301 -0.046,0.045 -9e-5,8e-5 -4.3e-4,-9e-5 -5.2e-4,0 -0.0958,0.0958 -0.19208,0.19521 -0.28784,0.29765 -0.0958,0.10245 -0.19051,0.20767 -0.28318,0.31575 -1.6e-4,1.8e-4 -3.6e-4,3.3e-4 -5.2e-4,5.1e-4 -0.18517,0.21599 -0.36124,0.44253 -0.51573,0.6749 -0.15457,0.23252 -0.28766,0.4713 -0.38706,0.7121 -0.0994,0.24082 -0.16521,0.48356 -0.185,0.7245 -0.009,0.0839 -0.016,0.16896 -0.016,0.25683 v 0.001 5.3e-4 33.99948 5.3e-4 c 0,0.1037 0.005,0.20603 0.0155,0.30696 0,0 0,5.3e-4 0,5.3e-4 0.0102,0.10092 0.0256,0.20051 0.0455,0.29817 0,0 0,5.3e-4 0,5.3e-4 0.0199,0.0977 0.0443,0.19343 0.0734,0.28732 0,0 0,5.3e-4 0,5.3e-4 0.0291,0.0939 0.063,0.18579 0.10077,0.27544 0,0 0,5.3e-4 0,5.3e-4 0.0378,0.0896 0.0801,0.1771 0.12609,0.262 0,0 0,5.3e-4 0,5.3e-4 0.046,0.0849 0.0961,0.16683 0.14986,0.24649 0,0 0,5.3e-4 0,5.3e-4 0.21521,0.31908 0.49017,0.59405 0.80925,0.80926 0,0 5.2e-4,0 5.2e-4,0 0.0797,0.0537 0.1616,0.10383 0.2465,0.14986 0,0 5.1e-4,0 5.1e-4,0 0.0849,0.046 0.17236,0.0883 0.262,0.12609 0,0 5.2e-4,0 5.2e-4,0 0.0897,0.0378 0.18154,0.0717 0.27544,0.10077 0,0 5.1e-4,0 5.1e-4,0 0.0939,0.0291 0.18967,0.0535 0.28732,0.0734 0,0 5.2e-4,0 5.2e-4,0 0.0977,0.0199 0.19725,0.0353 0.29817,0.0455 0,0 5.3e-4,0 5.3e-4,0 0.10093,0.0102 0.20326,0.0155 0.30696,0.0155 h 34.00049 c 0.0886,0 0.17435,-0.007 0.2589,-0.016 0.0616,-0.005 0.12324,-0.0134 0.185,-0.0243 0.85325,-0.11461 1.42554,-0.52171 2.53835,-1.63452 1.7e-4,-1.7e-4 2.6e-4,-2.6e-4 5.3e-4,-5.3e-4 0.0956,-0.0956 0.19225,-0.19489 0.28784,-0.29714 1.6e-4,-1.7e-4 2.6e-4,-2.6e-4 5.3e-4,-5.3e-4 0.14853,-0.1589 0.29245,-0.32691 0.43149,-0.49867 0.0401,-0.0496 0.0822,-0.0978 0.12093,-0.14832 8e-5,-1.1e-4 -9e-5,-5.3e-4 0,-5.3e-4 0.0864,-0.11256 0.16927,-0.22698 0.24649,-0.34313 8e-5,-1.3e-4 -7e-5,-2.6e-4 0,-5.3e-4 0.0772,-0.11614 0.14949,-0.23372 0.21447,-0.35243 6e-5,-1.4e-4 -9e-5,-2.7e-4 0,-5.3e-4 0.0649,-0.1187 0.12293,-0.23838 0.17258,-0.35863 7e-5,-1.6e-4 -6e-5,-2.7e-4 0,-5.3e-4 0.0994,-0.2408 0.16522,-0.48357 0.18501,-0.72451 0.009,-0.0839 0.016,-0.16895 0.016,-0.25683 v -0.001 -5.3e-4 -33.99943 -5.3e-4 c -2e-5,-0.1037 -0.005,-0.20603 -0.0155,-0.30696 0,0 0,-5.3e-4 0,-5.3e-4 -0.0102,-0.10092 -0.0256,-0.20051 -0.0455,-0.29817 0,0 0,-5.2e-4 0,-5.2e-4 -0.0199,-0.0977 -0.0443,-0.19342 -0.0734,-0.28732 0,0 0,-5.2e-4 0,-5.2e-4 -0.0291,-0.0939 -0.063,-0.18578 -0.10077,-0.27543 0,0 0,-5.2e-4 0,-5.2e-4 -0.0378,-0.0896 -0.0801,-0.1771 -0.12609,-0.262 0,0 0,-5.1e-4 0,-5.1e-4 -0.046,-0.0849 -0.0961,-0.16684 -0.14986,-0.2465 0,0 0,-5.2e-4 0,-5.2e-4 -0.0538,-0.0798 -0.11106,-0.15698 -0.17208,-0.23099 -0.0611,-0.0741 -0.12593,-0.14454 -0.19379,-0.21239 -0.13553,-0.13553 -0.28384,-0.25827 -0.44338,-0.36587 0,0 -5.3e-4,0 -5.3e-4,0 -0.0797,-0.0537 -0.1616,-0.10386 -0.2465,-0.14986 0,0 -5.3e-4,0 -5.3e-4,0 -0.0849,-0.046 -0.17236,-0.0883 -0.262,-0.12609 0,0 -5.3e-4,0 -5.3e-4,0 -0.0896,-0.0378 -0.18154,-0.0717 -0.27543,-0.10077 0,0 -5.3e-4,0 -5.3e-4,0 -0.0939,-0.0291 -0.18967,-0.0535 -0.28733,-0.0734 0,0 -5.2e-4,0 -5.2e-4,0 -0.0977,-0.0199 -0.19725,-0.0353 -0.29818,-0.0455 0,0 -5.3e-4,0 -5.3e-4,0 -0.10091,-0.0101 -0.20324,-0.0154 -0.30694,-0.0154 h -5.3e-4 z"
       style="fill:#ebcb45;fill-opacity:1;stroke:none;stroke-width:0.5" />
    <path
       style="fill:#f4f098;fill-opacity:1;stroke:none;stroke-width:0.5"
       d="m 158.9626,216.53784 h 34 c 1.662,0 3,1.338 3,3 v 34 c 0,1.662 -1.338,3 -3,3 h -34 c -1.662,0 -3,-1.338 -3,-3 v -34 c 0,-1.662 1.338,-3 3,-3 z"
       id="rect5459" />
    <g
       aria-label="N"
       style="font-style:normal;font-weight:normal;font-size:10.58333302px;line-height:1.25;font-family:sans-serif;letter-spacing:0px;word-spacing:0px;fill:#000000;fill-opacity:1;stroke:none;stroke-width:0.26458332"
       id="text5463">
      <path
         d="m 188.37313,247.29429 q 0,1.22818 -0.57447,1.42627 l -0.35657,-0.0792 q 0.0792,0.0396 0.27733,0.19809 -0.69332,-0.33675 -1.60455,-1.38665 L 169.91086,228.9905 v 13.50994 q 0,1.80265 1.03009,3.38739 0.69332,1.0697 2.43654,2.69406 h -6.67573 q 1.32722,-2.23845 1.32722,-4.0609 v -17.61047 l -1.64417,-0.99046 q -0.67352,-0.17829 -1.62436,-0.53485 -0.25753,-0.13867 -1.20837,-0.93104 l 1.68379,-0.2179 h 5.34851 l 15.90687,18.56131 v -13.47032 q 0,-0.8518 -0.13867,-1.14894 -0.11886,-0.416 -0.55466,-1.12913 l -2.15921,-1.68379 v -1.12913 h 4.73442 z"
         style="font-style:normal;font-variant:normal;font-weight:normal;font-stretch:normal;font-size:40.56944275px;font-family:'Dumbledor 3';-inkscape-font-specification:'Dumbledor 3, ';fill:#368354;fill-opacity:1;stroke-width:0.26458332"
         id="path1086" />
    </g>
    <g
       aria-label="1"
       style="font-style:normal;font-weight:normal;font-size:10.58333302px;line-height:1.25;font-family:sans-serif;letter-spacing:0px;word-spacing:0px;fill:#000000;fill-opacity:1;stroke:none;stroke-width:0.26458332"
       id="text5467">
      <path
         d="m 192.7876,253.36284 h -0.94878 q 0.13952,-0.16743 0.16743,-0.27595 l 0.0186,-0.25425 v -2.54248 q -0.0124,0.003 -0.0217,0.003 l -0.12712,-0.0186 h -0.0713 l -0.33176,0.0372 0.13332,-0.10232 q 0.006,-0.006 0.5209,-0.28215 0.32556,-0.17363 0.48369,-0.32866 -0.0186,0.0775 -0.0279,0.0837 v -0.003 q 0.009,0.0589 0.009,0.36897 v 2.92696 q 0,0.062 0.0124,0.12712 0,0.0744 0.18294,0.26045 z"
         style="font-style:normal;font-variant:normal;font-weight:normal;font-stretch:normal;font-size:6.3499999px;font-family:'Dumbledor 3';-inkscape-font-specification:'Dumbledor 3, ';text-align:end;text-anchor:end;fill:#368354;fill-opacity:1;stroke-width:0.26458332"
         id="path1083" />
    </g>
    <path
       inkscape:connector-curvature="0"
       id="rect1638-9"
       d="m 205.91263,214.87883 c -0.0886,0 -0.17434,0.007 -0.2589,0.016 -0.0616,0.005 -0.12323,0.0134 -0.185,0.0243 -0.84073,0.11293 -1.41142,0.51377 -2.49235,1.59008 -0.015,0.0149 -0.0311,0.0301 -0.046,0.045 -9e-5,8e-5 -4.3e-4,-9e-5 -5.2e-4,0 -0.0958,0.0958 -0.19208,0.19521 -0.28784,0.29765 -0.0958,0.10245 -0.19051,0.20767 -0.28318,0.31575 -1.6e-4,1.8e-4 -3.6e-4,3.3e-4 -5.2e-4,5.1e-4 -0.18517,0.21599 -0.36124,0.44253 -0.51573,0.6749 -0.15457,0.23252 -0.28766,0.4713 -0.38706,0.7121 -0.0994,0.24082 -0.16521,0.48356 -0.185,0.7245 -0.009,0.0839 -0.016,0.16896 -0.016,0.25683 v 0.001 5.3e-4 33.99948 5.3e-4 c 0,0.1037 0.005,0.20603 0.0155,0.30696 0,0 0,5.3e-4 0,5.3e-4 0.0102,0.10092 0.0256,0.20051 0.0455,0.29817 0,0 0,5.3e-4 0,5.3e-4 0.0199,0.0977 0.0443,0.19343 0.0734,0.28732 0,0 0,5.3e-4 0,5.3e-4 0.0291,0.0939 0.063,0.18579 0.10077,0.27544 0,0 0,5.3e-4 0,5.3e-4 0.0378,0.0896 0.0801,0.1771 0.12609,0.262 0,0 0,5.3e-4 0,5.3e-4 0.046,0.0849 0.0961,0.16683 0.14986,0.24649 0,0 0,5.3e-4 0,5.3e-4 0.21521,0.31908 0.49017,0.59405 0.80925,0.80926 0,0 5.2e-4,0 5.2e-4,0 0.0797,0.0537 0.1616,0.10383 0.2465,0.14986 0,0 5.1e-4,0 5.1e-4,0 0.0849,0.046 0.17236,0.0883 0.262,0.12609 0,0 5.2e-4,0 5.2e-4,0 0.0896,0.0378 0.18154,0.0717 0.27544,0.10077 0,0 5.1e-4,0 5.1e-4,0 0.0939,0.0291 0.18967,0.0535 0.28732,0.0734 0,0 5.2e-4,0 5.2e-4,0 0.0977,0.0199 0.19725,0.0353 0.29817,0.0455 0,0 5.3e-4,0 5.3e-4,0 0.10093,0.0102 0.20326,0.0155 0.30696,0.0155 h 34.0005 c 0.0886,0 0.17434,-0.007 0.2589,-0.016 0.0616,-0.005 0.12323,-0.0134 0.185,-0.0243 0.85324,-0.11461 1.42554,-0.52171 2.53834,-1.63452 1.7e-4,-1.7e-4 2.7e-4,-2.6e-4 5.3e-4,-5.3e-4 0.0956,-0.0956 0.19225,-0.19489 0.28784,-0.29714 1.7e-4,-1.7e-4 2.7e-4,-2.6e-4 5.3e-4,-5.3e-4 0.14853,-0.1589 0.29245,-0.32691 0.4315,-0.49867 0.0401,-0.0496 0.0822,-0.0978 0.12092,-0.14832 9e-5,-1.1e-4 -9e-5,-5.3e-4 0,-5.3e-4 0.0864,-0.11256 0.16928,-0.22698 0.2465,-0.34313 8e-5,-1.3e-4 -8e-5,-2.6e-4 0,-5.3e-4 0.0772,-0.11614 0.14949,-0.23372 0.21446,-0.35243 7e-5,-1.4e-4 -8e-5,-2.7e-4 0,-5.3e-4 0.0649,-0.1187 0.12293,-0.23838 0.17259,-0.35863 6e-5,-1.6e-4 -6e-5,-2.7e-4 0,-5.3e-4 0.0994,-0.2408 0.16522,-0.48357 0.18501,-0.72451 0.009,-0.0839 0.016,-0.16895 0.016,-0.25683 v -0.001 -5.3e-4 -33.99943 -5.3e-4 c -10e-6,-0.1037 -0.005,-0.20603 -0.0155,-0.30696 0,0 0,-5.3e-4 0,-5.3e-4 -0.0102,-0.10092 -0.0256,-0.20051 -0.0455,-0.29817 0,0 0,-5.2e-4 0,-5.2e-4 -0.0199,-0.0977 -0.0443,-0.19342 -0.0734,-0.28732 0,0 0,-5.2e-4 0,-5.2e-4 -0.0291,-0.0939 -0.063,-0.18578 -0.10077,-0.27543 0,0 0,-5.2e-4 0,-5.2e-4 -0.0378,-0.0896 -0.0801,-0.17709 -0.12609,-0.262 0,0 0,-5.1e-4 0,-5.1e-4 -0.046,-0.0849 -0.0961,-0.16684 -0.14986,-0.2465 0,0 0,-5.2e-4 0,-5.2e-4 -0.0538,-0.0798 -0.11106,-0.15698 -0.17209,-0.23099 -0.0611,-0.0741 -0.12592,-0.14454 -0.19378,-0.21239 -0.13553,-0.13553 -0.28384,-0.25827 -0.44338,-0.36587 0,0 -5.3e-4,0 -5.3e-4,0 -0.0797,-0.0537 -0.16161,-0.10386 -0.2465,-0.14986 0,0 -5.3e-4,0 -5.3e-4,0 -0.0849,-0.046 -0.17236,-0.0883 -0.262,-0.12609 0,0 -5.3e-4,0 -5.3e-4,0 -0.0896,-0.0378 -0.18154,-0.0717 -0.27544,-0.10077 0,0 -5.2e-4,0 -5.2e-4,0 -0.0939,-0.0291 -0.18967,-0.0535 -0.28733,-0.0734 0,0 -5.3e-4,0 -5.3e-4,0 -0.0977,-0.0199 -0.19724,-0.0353 -0.29817,-0.0455 0,0 -5.3e-4,0 -5.3e-4,0 -0.10086,-0.0101 -0.20319,-0.0154 -0.30689,-0.0154 h -5.3e-4 z"
       style="fill:#ebcb45;fill-opacity:1;stroke:none;stroke-width:0.5" />
    <path
       style="fill:#f4f098;fill-opacity:1;stroke:none;stroke-width:0.5"
       d="m 204.25453,216.53784 h 34 c 1.662,0 3,1.338 3,3 v 34 c 0,1.662 -1.338,3 -3,3 h -34 c -1.662,0 -3,-1.338 -3,-3 v -34 c 0,-1.662 1.338,-3 3,-3 z"
       id="rect5473" />
    <g
       aria-label="G"
       style="font-style:normal;font-weight:normal;font-size:10.58333302px;line-height:1.25;font-family:sans-serif;letter-spacing:0px;word-spacing:0px;fill:#000000;fill-opacity:1;stroke:none;stroke-width:0.26458332"
       id="text5477">
      <path
         d="m 234.46733,224.03817 -1.42627,1.16875 q -1.01028,1.04989 -1.01028,1.9215 v 0.83199 q -0.0792,0.1981 -0.0792,1.60456 -2.85254,-3.6251 -8.31991,-3.6251 -5.01176,0 -8.0822,2.59501 -3.26853,2.77331 -3.26853,7.68601 0,4.4571 2.43654,7.52754 2.67426,3.38739 7.21059,3.38739 2.89216,0 5.07118,-1.28761 2.73368,-1.62436 2.73368,-3.66472 0,-0.39618 -0.11885,-1.14894 -0.0991,-0.77256 -0.0991,-1.16875 0,-0.47542 0.0991,-0.8716 -0.57447,0.2179 -1.58475,0.2179 -0.71313,0 -2.09978,-0.37638 -1.36684,-0.39619 -2.07998,-0.39619 -0.95085,0 -2.02055,0.35657 l -2.49597,1.08951 q 1.24799,-1.7036 1.84226,-2.25826 1.30742,-1.18855 3.01102,-1.18855 0.83199,0 2.97139,0.57447 0.21791,0.0594 0.73295,0.15847 0.19809,0.0396 0.83199,0.0396 1.26779,0 2.43654,-0.67352 0.1981,-0.11885 1.92151,-1.40646 l -0.11886,0.19809 0.19809,-0.11885 q -0.23771,0.17828 -0.91123,1.24798 -0.51504,1.14894 -0.51504,3.01102 0,1.62436 0.77257,6.02203 -4.08072,3.54586 -11.0734,3.54586 -6.20032,0 -9.74618,-3.28834 -3.64491,-3.38739 -3.64491,-9.52828 0,-6.04183 4.97213,-9.34999 4.259,-2.83273 10.61779,-2.83273 z"
         style="font-style:normal;font-variant:normal;font-weight:normal;font-stretch:normal;font-size:40.56945038px;font-family:'Dumbledor 3';-inkscape-font-specification:'Dumbledor 3, ';fill:#368354;fill-opacity:1;stroke-width:0.26458332"
         id="path1093" />
    </g>
    <g
       aria-label="2"
       style="font-style:normal;font-weight:normal;font-size:10.58333302px;line-height:1.25;font-family:sans-serif;letter-spacing:0px;word-spacing:0px;fill:#000000;fill-opacity:1;stroke:none;stroke-width:0.26458332"
       id="text5481">
      <path
         d="m 238.07951,252.5567 -0.33486,0.79685 -2.58899,0.009 v -0.14883 q 0.0341,0 0.5116,-0.41548 0.40307,-0.35347 0.5519,-0.49299 0.95188,-0.90227 0.95188,-1.47898 0,-0.37827 -0.22324,-0.61392 -0.22014,-0.23564 -0.59531,-0.23564 -0.0961,0 -0.22635,0.0465 -0.15813,0.0558 -0.15813,0.13022 0,0.0155 0.003,0.0248 -0.0837,0.16743 -0.0837,0.38447 0,0.22634 0.0899,0.46199 l -0.26355,-0.031 -0.29146,0.0155 -0.17673,0.0372 q 0,-0.20774 0.0992,-0.5178 0.11782,-0.36897 0.29455,-0.49919 0.44339,-0.32866 1.0294,-0.32866 0.44338,0 0.73174,0.18913 0.33796,0.22014 0.33796,0.64182 0,1.08211 -1.73013,2.38745 h 1.10691 q 0.29146,0 0.4961,-0.10852 0.0682,-0.0372 0.46818,-0.25424 z"
         style="font-style:normal;font-variant:normal;font-weight:normal;font-stretch:normal;font-size:6.3499999px;font-family:'Dumbledor 3';-inkscape-font-specification:'Dumbledor 3, ';text-align:end;text-anchor:end;fill:#368354;fill-opacity:1;stroke-width:0.26458332"
         id="path1090" />
    </g>
    <g
       aria-label="Compiler"
       style="font-style:normal;font-weight:normal;font-size:10.58333302px;line-height:1.25;font-family:sans-serif;letter-spacing:0px;word-spacing:0px;fill:#000000;fill-opacity:1;stroke:none;stroke-width:0.26458332"
       id="text5596">
      <path
         d="m 120.68931,268.10087 c -0.99907,0.0847 -2.09974,0.7112 -2.9464,1.33773 -0.84667,0.62653 -1.50707,1.28693 -1.50707,1.28693 -0.44027,0.44027 -0.89747,0.9652 -1.30387,1.5748 -0.74506,0.1524 -1.524,0.3048 -2.31986,0.4572 -2.9464,0.5588 -6.01134,1.13454 -8.55134,2.11667 -1.38853,0.54187 -2.47226,1.15147 -3.31893,1.84573 -0.948267,0.79587 -1.5748,1.7272 -1.8796,2.76014 -0.01693,0.0677 -0.186267,0.6096 -0.254,1.35466 -0.06773,0.7112 -0.03387,1.778 0.474133,2.6924 0.389467,0.69427 0.982137,1.2192 1.777997,1.5748 0.23707,0.11854 0.57574,0.22014 0.57574,0.22014 0.82973,0.33866 1.27,-0.2032 0.9652,-0.27094 -0.27094,-0.0677 -0.7112,-0.0169 -1.15147,-0.16933 -0.8636,-0.32173 -1.490134,-0.82973 -1.8796,-1.524 -0.4572,-0.82973 -0.491067,-1.81187 -0.440267,-2.4892 0.06773,-0.72813 0.254,-1.27 0.254,-1.27 0.01693,-0.0847 0.0508,-0.1524 0.06773,-0.23707 0.3048,-0.89746 0.863604,-1.6764 1.710264,-2.37066 0.8128,-0.67734 1.86267,-1.27 3.21734,-1.79494 2.52306,-0.98213 5.55413,-1.55786 8.50053,-2.11666 0.6604,-0.11854 1.3208,-0.254 1.96427,-0.37254 -0.44027,0.64347 -1.33774,2.04894 -1.8796,3.7592 -0.42334,1.3208 -0.52494,2.55694 -0.3048,3.57294 0.1524,0.6096 0.4064,1.13453 0.77893,1.59173 0.4064,0.49107 0.9652,0.88053 1.64253,1.15147 0.3048,0.13546 0.79587,0.27093 1.40547,0.27093 0.6096,0 1.33773,-0.13547 2.1844,-0.54187 1.74413,-0.8636 3.42053,-2.6924 4.9784,-5.4356 0.0847,-0.13546 0.0339,-0.32173 -0.1016,-0.4064 -0.1524,-0.0677 -0.32173,-0.0169 -0.4064,0.11854 -0.8128,1.40546 -1.64253,2.5908 -2.50613,3.48826 -0.72814,0.762 -1.49014,1.33774 -2.2352,1.69334 -0.79587,0.38946 -1.4732,0.508 -2.01507,0.49106 -0.11853,0 -0.22013,-0.0169 -0.33867,-0.0339 -1.8288,-0.23707 -2.15053,-2.032 -1.89653,-3.77614 0.23707,-1.64253 1.08373,-3.2512 1.08373,-3.2512 0.62654,-1.20226 1.27,-2.3368 1.8796,-3.2004 0.33867,-0.0677 0.6604,-0.1524 0.9652,-0.254 1.71027,-0.47413 2.77707,-1.016 3.36974,-1.6764 0.0169,-0.0169 0.11853,-0.11853 0.22013,-0.28786 0.4064,-0.5588 0.74507,-1.778 -0.37253,-1.8796 -0.18627,-0.0169 -0.4064,0 -0.4064,0 z m 0.508,0.64346 c 0.0677,0 0.11853,0.0339 0.1524,0.0677 0.0339,0.0169 0.0508,0.0677 0.0677,0.0847 0.13547,0.54187 -0.4064,1.13454 -0.4064,1.13454 -0.0169,0.0169 -0.0169,0.0169 -0.0169,0.0169 -0.54187,0.6096 -1.55787,1.10067 -3.2004,1.5748 -0.18627,0.0508 -0.37254,0.1016 -0.5588,0.1524 2.11666,-2.77707 3.48826,-3.1496 3.9624,-3.03107 z"
         style="font-style:normal;font-variant:normal;font-weight:normal;font-stretch:normal;font-size:16.93333244px;font-family:'Ants Valley - Personal Use';-inkscape-font-specification:'Ants Valley - Personal Use';fill:#ffffff;stroke-width:0.26458332"
         id="path1097" />
      <path
         d="m 126.5313,279.5478 c 0.38947,-0.13547 0.762,-0.33867 1.13453,-0.6096 0.59267,-0.42333 1.15147,-1.016 1.64254,-1.74413 0.0847,-0.13547 0.0508,-0.32174 -0.0847,-0.42334 -0.13547,-0.0847 -0.32173,-0.0508 -0.4064,0.0847 -0.4572,0.67733 -0.94827,1.20227 -1.4732,1.59173 -0.3048,0.2032 -0.6096,0.37254 -0.9144,0.49107 0.47413,-1.27 0.54187,-2.7432 0.1524,-3.53907 -0.2032,-0.42333 -0.508,-0.57573 -0.72813,-0.6096 -0.54187,-0.11853 -1.3208,0 -1.96427,1.20227 -1.20227,0.4572 -1.74413,2.26907 -1.74413,2.26907 0,0 -0.94827,2.62466 0.88053,3.13266 1.49013,0.38947 2.55693,-0.762 3.06493,-1.7272 0,0 0.16934,-0.0339 0.44027,-0.11853 z m -3.16653,1.3716 c -0.6096,-0.3048 -0.13547,-1.9304 -0.0339,-2.26907 0.0339,0.1016 0.0677,0.18627 0.11853,0.27094 0.23707,0.37253 0.6096,0.62653 1.13454,0.762 0.0508,0.0169 0.3048,0.0847 0.69426,0.0847 0.0339,0 0.0847,0 0.11854,-0.0169 -0.6604,1.0668 -1.54094,1.40547 -2.032,1.1684 z m 1.35466,-1.81187 c -0.3556,-0.0847 -0.6096,-0.254 -0.74506,-0.49106 -0.23707,-0.38947 -0.1016,-0.9144 -0.1016,-0.9144 0,0 0.0677,-0.28787 0.13546,-0.49107 0.0847,-0.254 0.2032,-0.5588 0.3556,-0.8636 0.18627,-0.3556 0.38947,-0.6096 0.6096,-0.77893 0.16934,-0.1524 0.37254,-0.22014 0.57574,-0.22014 0.0508,0 0.11853,0 0.18626,0.0169 0.11854,0.0339 0.23707,0.13546 0.32174,0.3048 0.16933,0.33866 0.22013,0.9144 0.1524,1.5748 -0.0508,0.64346 -0.23707,1.30386 -0.49107,1.89653 -0.4572,0.1016 -0.99907,-0.0339 -0.99907,-0.0339 z"
         style="font-style:normal;font-variant:normal;font-weight:normal;font-stretch:normal;font-size:16.93333244px;font-family:'Ants Valley - Personal Use';-inkscape-font-specification:'Ants Valley - Personal Use';fill:#ffffff;stroke-width:0.26458332"
         id="path1099" />
      <path
         d="m 139.58688,276.6522 c -0.13547,-0.1016 -0.32173,-0.0508 -0.4064,0.0847 -0.0169,0.0169 -0.762,1.18533 -1.69333,2.286 -1.04987,1.23613 -1.9304,1.8796 -2.4384,1.81186 -0.52494,-0.13546 -0.0169,-1.35466 0.49106,-2.35373 0,0 0.42334,-0.8636 0.72814,-1.59173 0.3556,-0.88054 0.42333,-1.91347 -0.49107,-2.01507 0,0 0,0 -0.0169,0 -0.4572,-0.0677 -0.99907,0.254 -1.65947,0.93133 -0.4572,0.47414 -0.98213,1.15147 -1.55787,1.99814 0.13547,-0.27094 0.27094,-0.6096 0.4064,-0.9144 0.3556,-0.88054 0.42334,-1.91347 -0.49106,-2.01507 0,0 0,0 -0.0169,0 -0.4572,-0.0677 -0.99906,0.254 -1.65946,0.93133 -0.1016,0.1016 -0.2032,0.22014 -0.32174,0.33867 0.22014,-0.37253 0.37254,-0.6096 0.37254,-0.6096 0,0 0,0 0,0 0.1016,-0.16933 0.2032,-0.6604 -0.27094,-0.6604 h -0.6096 c -0.11853,0 -0.22013,0.0677 -0.27093,0.1524 -0.0847,0.13547 -0.1524,0.254 -0.23707,0.38947 0,0 -3.47133,6.18066 -1.81186,6.01133 0.1524,-0.0169 0.23706,-0.1524 0.27093,-0.27093 0.16933,-0.32174 0.89747,-1.64254 1.76107,-2.92947 0.57573,-0.8636 1.08373,-1.54093 1.54093,-2.01507 0.27093,-0.27093 0.49107,-0.4572 0.6604,-0.57573 0.0339,-0.0169 0.1016,-0.0508 0.13547,-0.0169 0.11853,0.0677 0.0169,0.38946 -0.18627,0.74506 -0.62653,1.1176 -1.08373,2.3368 -1.08373,2.3368 0,0 -0.69427,1.71027 0.18626,1.89654 0.57574,0.11853 1.016,-0.67734 1.016,-0.67734 0.28787,-0.508 0.6604,-1.10066 1.04987,-1.69333 0.57573,-0.8636 1.08373,-1.54093 1.54093,-2.01507 0.27094,-0.27093 0.49107,-0.4572 0.6604,-0.57573 0.0339,-0.0169 0.1016,-0.0508 0.13547,-0.0169 0.11853,0.0677 -0.0169,0.38946 -0.22013,0.74506 -0.69427,1.25307 -1.10067,2.286 -1.10067,2.286 0,0 -0.82973,1.99814 0.3556,2.57387 0.22013,0.11853 0.44027,0.16933 0.5588,0.18627 0.0677,0.0169 0.13547,0.0169 0.22013,0.0169 0.72814,0 1.65947,-0.6604 2.81094,-2.032 0.94826,-1.1176 1.69333,-2.286 1.7272,-2.3368 0.0847,-0.1524 0.0508,-0.32173 -0.0847,-0.4064 z"
         style="font-style:normal;font-variant:normal;font-weight:normal;font-stretch:normal;font-size:16.93333244px;font-family:'Ants Valley - Personal Use';-inkscape-font-specification:'Ants Valley - Personal Use';fill:#ffffff;stroke-width:0.26458332"
         id="path1101" />
      <path
         d="m 145.78446,276.77073 c -0.13547,-0.0847 -0.3048,-0.0508 -0.4064,0.0847 -0.57574,0.84667 -1.20227,1.4732 -1.89654,1.86267 -0.18626,0.1016 -0.38946,0.18626 -0.59266,0.27093 0.47413,-1.04987 0.69426,-2.1844 0.6604,-2.87867 -0.0677,-1.23613 -0.88054,-1.27 -1.30387,-1.20226 -0.38947,0.0508 -0.82973,0.28786 -1.3208,0.74506 0.0339,-0.0508 0.0508,-0.1016 0.0847,-0.1524 0.1524,-0.3048 -0.0847,-0.69426 -0.4064,-0.69426 h -0.5588 c -0.13547,0 -0.254,0.0847 -0.3048,0.2032 -0.3556,0.72813 -1.59174,3.28506 -2.57387,5.6896 0,0 -2.52307,6.21453 -1.15147,6.0452 0.16934,-0.0169 0.23707,-0.37254 0.23707,-0.37254 0.52493,-1.778 2.04893,-5.04613 2.37067,-5.70653 0.2032,0.57573 0.94826,0.74507 0.94826,0.74507 1.28694,0.2032 2.26907,-0.62654 2.92947,-1.71027 0.44027,-0.0847 0.8636,-0.23707 1.27,-0.47413 0.77893,-0.44027 1.4732,-1.1176 2.09973,-2.032 0.0847,-0.13547 0.0508,-0.32174 -0.0847,-0.42334 z m -5.0292,-0.0677 c 0.52493,-0.6096 0.99906,-1.016 1.3716,-1.15147 0.0339,-0.0169 0.27093,-0.0339 0.16933,1.13454 -0.0677,0.59266 -0.32173,1.59173 -0.72813,2.45533 -0.27094,-0.0677 -0.6096,-0.2032 -1.15147,-0.3556 -0.42333,-0.11853 -0.74507,-0.0339 -0.99907,0.0847 0.1524,-0.33867 0.3048,-0.67734 0.4572,-0.98214 0.16934,-0.254 0.49107,-0.72813 0.88054,-1.18533 z m -1.1684,4.14867 c 0,0 -0.8128,-0.1524 -0.254,-1.13454 0.42333,-0.762 1.35466,-0.22013 1.9812,-0.0677 -0.4572,0.79587 -1.04987,1.3716 -1.7272,1.20227 z"
         style="font-style:normal;font-variant:normal;font-weight:normal;font-stretch:normal;font-size:16.93333244px;font-family:'Ants Valley - Personal Use';-inkscape-font-specification:'Ants Valley - Personal Use';fill:#ffffff;stroke-width:0.26458332"
         id="path1103" />
      <path
         d="m 150.15324,276.6522 c -0.13547,-0.1016 -0.32173,-0.0508 -0.4064,0.0847 0,0.0169 -0.762,1.18533 -1.69333,2.286 -1.04987,1.23613 -1.9304,1.8796 -2.4384,1.81186 -0.99907,-0.254 1.1176,-3.9624 1.84573,-5.11386 0.23707,-0.38947 0.1016,-0.84667 -0.23707,-0.84667 h -0.57573 c -0.13547,0 -0.28787,0.0677 -0.37253,0.2032 -0.98214,1.4224 -1.55787,2.8448 -1.81187,3.6068 0,0 -0.72813,1.96427 0.4572,2.54 0.23707,0.11853 0.44027,0.16933 0.57573,0.18627 0.0677,0.0169 0.13547,0.0169 0.2032,0.0169 0.72814,0 1.65947,-0.6604 2.81094,-2.032 0.94826,-1.1176 1.71026,-2.286 1.74413,-2.3368 0.0847,-0.1524 0.0339,-0.32173 -0.1016,-0.4064 z m -2.72627,-2.1336 c 0.0847,-0.0847 0.28787,-0.23707 0.28787,-0.23707 0.62653,-0.42333 0.42333,-0.82973 0.22013,-0.98213 -0.2032,-0.1524 -0.62653,-0.23707 -0.88053,0.22013 -0.23707,0.44027 0,0.8636 0,0.8636 0.0677,0.16934 0.254,0.23707 0.37253,0.13547 z"
         style="font-style:normal;font-variant:normal;font-weight:normal;font-stretch:normal;font-size:16.93333244px;font-family:'Ants Valley - Personal Use';-inkscape-font-specification:'Ants Valley - Personal Use';fill:#ffffff;stroke-width:0.26458332"
         id="path1105" />
      <path
         d="m 149.9839,281.39353 c 0.72814,0 1.64254,-0.6604 2.794,-2.01506 0.94827,-1.1176 1.69334,-2.26907 1.7272,-2.31987 0.0847,-0.1524 0.0339,-0.32173 -0.1016,-0.4064 -0.13546,-0.1016 -0.32173,-0.0508 -0.4064,0.0847 0,0.0169 -0.762,1.18533 -1.6764,2.26906 -1.0668,1.23614 -1.94733,1.8796 -2.45533,1.778 -0.4064,-0.5588 0.1524,-2.1844 0.1524,-2.1844 0.32173,-0.89746 0.8128,-2.032 1.50707,-3.33586 1.10066,-2.0828 2.2352,-4.04707 2.81093,-5.04614 0.16933,-0.3048 -0.0508,-0.67733 -0.4064,-0.67733 h -0.49107 c -0.1524,0 -0.27093,0.0677 -0.3556,0.2032 -0.42333,0.72813 -1.89653,3.28507 -3.0988,5.67267 -0.508,1.03293 -0.89746,2.032 -1.13453,2.8956 0,0 -0.77893,2.21826 0.54187,2.92946 0,0 0.28786,0.1524 0.59266,0.1524 z"
         style="font-style:normal;font-variant:normal;font-weight:normal;font-stretch:normal;font-size:16.93333244px;font-family:'Ants Valley - Personal Use';-inkscape-font-specification:'Ants Valley - Personal Use';fill:#ffffff;stroke-width:0.26458332"
         id="path1107" />
      <path
         d="m 160.31322,276.6522 c -0.13547,-0.1016 -0.3048,-0.0677 -0.4064,0.0677 0,0.0169 -0.74507,1.10067 -1.6764,2.1336 -0.5588,0.6096 -1.016,1.03294 -1.50707,1.40547 0,0 -0.6604,0.52493 -1.38853,0.54187 -0.62654,0.0169 -0.98214,-0.32174 -0.98214,-0.32174 -0.54186,-0.508 -0.254,-1.49013 -0.0847,-1.9304 1.43933,0.16934 2.37066,-0.47413 2.6924,-1.03293 1.10066,-1.81187 -0.23707,-2.50613 -0.23707,-2.50613 -1.08373,-0.64347 -2.794,1.27 -3.57293,3.01413 0,0 -0.8128,1.79493 0.11853,2.77707 0.4064,0.44026 1.15147,0.82973 2.3876,0.64346 0.6604,-0.1016 0.99907,-0.32173 1.4732,-0.69426 0.47413,-0.37254 0.9652,-0.8636 1.54093,-1.50707 0.9652,-1.0668 1.69334,-2.1336 1.7272,-2.1844 0.1016,-0.13547 0.0508,-0.32173 -0.0847,-0.4064 z m -3.81,-0.8636 c 0,0 0.72813,0.1524 -0.0339,1.35467 -0.38947,0.6096 -1.1176,0.9144 -1.94733,0.84666 0.62653,-1.13453 1.524,-2.26906 1.9812,-2.20133 z"
         style="font-style:normal;font-variant:normal;font-weight:normal;font-stretch:normal;font-size:16.93333244px;font-family:'Ants Valley - Personal Use';-inkscape-font-specification:'Ants Valley - Personal Use';fill:#ffffff;stroke-width:0.26458332"
         id="path1109" />
      <path
         d="m 163.93693,274.90807 c -0.0677,-0.0169 -0.16934,-0.0339 -0.16934,-0.0339 -0.4572,-0.0508 -1.016,0.254 -1.7272,0.93133 -0.4064,0.4064 -0.88053,0.94827 -1.38853,1.6256 0.59267,-1.04986 1.08373,-1.89653 1.08373,-1.89653 0,0 0,0 0.0169,0 0.1016,-0.16933 0.2032,-0.6604 -0.27094,-0.6604 h -0.6096 c -0.11853,0 -0.22013,0.0677 -0.27093,0.1524 -0.0847,0.13547 -0.1524,0.254 -0.23707,0.38947 0,0 -3.36973,5.9944 -1.8796,6.01133 0.0169,0 0.0339,0 0.0508,0 0.1016,0 0.18627,-0.0508 0.254,-0.13547 0,-0.0169 0.89747,-1.55786 1.9812,-3.03106 0.64347,-0.88054 1.20227,-1.55787 1.69334,-2.032 0.1524,-0.1524 0.4572,-0.44027 0.762,-0.6096 0.0339,-0.0169 0.0677,-0.0339 0.1016,-0.0169 0.11853,0.0847 -0.0169,0.4064 -0.22014,0.762 0,0 -0.27093,0.44027 0.16934,0.62654 0.49106,0.2032 0.74506,-0.254 0.74506,-0.254 0.37254,-0.6096 0.6096,-1.43934 0.11854,-1.74414 -0.0508,-0.0339 -0.11854,-0.0677 -0.2032,-0.0847 z"
         style="font-style:normal;font-variant:normal;font-weight:normal;font-stretch:normal;font-size:16.93333244px;font-family:'Ants Valley - Personal Use';-inkscape-font-specification:'Ants Valley - Personal Use';fill:#ffffff;stroke-width:0.26458332"
         id="path1111" />
    </g>
  </g>
</svg>
